<svg width="1920" height="208" viewBox="0 0 1920 208" fill="none" xmlns="http://www.w3.org/2000/svg">
<rect width="1920" height="208" fill="#27467A"/>
<rect x="91" y="29" width="151" height="151" rx="75.5" fill="#E2EAF7"/>
<path d="M135 85C135 82.8783 135.843 80.8434 137.343 79.3431C138.843 77.8429 140.878 77 143 77H175C177.122 77 179.157 77.8429 180.657 79.3431C182.157 80.8434 183 82.8783 183 85V109C183 111.122 182.157 113.157 180.657 114.657C179.157 116.157 177.122 117 175 117H143C140.878 117 138.843 116.157 137.343 114.657C135.843 113.157 135 111.122 135 109V85ZM187 107.656V86.328L196.02 81.248C196.324 81.0769 196.668 80.9885 197.017 80.9915C197.367 80.9946 197.709 81.089 198.01 81.2653C198.312 81.4417 198.561 81.6939 198.735 81.9968C198.909 82.2997 199 82.6428 199 82.992V111C199 111.349 198.908 111.693 198.734 111.996C198.56 112.299 198.309 112.551 198.007 112.727C197.706 112.903 197.363 112.996 197.014 112.999C196.664 113.001 196.32 112.912 196.016 112.74L187 107.656ZM155 120H167V122C167 125.978 165.42 129.794 162.607 132.607C159.794 135.42 155.978 137 152 137H141C140.47 137 139.961 136.789 139.586 136.414C139.211 136.039 139 135.53 139 135V128C139 127.47 139.211 126.961 139.586 126.586C139.961 126.211 140.47 126 141 126H152C152.796 126 153.559 125.684 154.121 125.121C154.684 124.559 155 123.796 155 123V120Z" fill="#27467A"/>
<path d="M284.827 65.0433H280.843C280.729 64.3899 280.52 63.8111 280.214 63.3068C279.909 62.7955 279.529 62.3622 279.075 62.0071C278.62 61.652 278.102 61.3857 277.519 61.2081C276.944 61.0234 276.322 60.9311 275.655 60.9311C274.469 60.9311 273.418 61.2294 272.501 61.826C271.585 62.4155 270.868 63.282 270.349 64.4254C269.831 65.5618 269.572 66.9503 269.572 68.5909C269.572 70.2599 269.831 71.6662 270.349 72.8097C270.875 73.946 271.592 74.8054 272.501 75.3878C273.418 75.9631 274.465 76.2507 275.644 76.2507C276.298 76.2507 276.908 76.1655 277.477 75.995C278.052 75.8175 278.567 75.5582 279.021 75.2173C279.483 74.8764 279.87 74.4574 280.183 73.9602C280.502 73.4631 280.722 72.8949 280.843 72.2557L284.827 72.277C284.678 73.3139 284.355 74.2869 283.858 75.196C283.368 76.1051 282.725 76.9077 281.93 77.6037C281.134 78.2926 280.204 78.8324 279.138 79.223C278.073 79.6065 276.891 79.7983 275.591 79.7983C273.673 79.7983 271.962 79.3544 270.456 78.4666C268.95 77.5788 267.764 76.2969 266.898 74.6207C266.031 72.9446 265.598 70.9347 265.598 68.5909C265.598 66.2401 266.035 64.2301 266.908 62.5611C267.782 60.8849 268.972 59.603 270.477 58.7152C271.983 57.8274 273.688 57.3835 275.591 57.3835C276.805 57.3835 277.935 57.554 278.979 57.8949C280.023 58.2358 280.953 58.7365 281.77 59.397C282.587 60.0504 283.258 60.853 283.783 61.8047C284.316 62.7493 284.664 63.8288 284.827 65.0433ZM295.414 79.8196C293.816 79.8196 292.431 79.468 291.259 78.7649C290.088 78.0618 289.178 77.0781 288.532 75.8139C287.893 74.5497 287.573 73.0724 287.573 71.3821C287.573 69.6918 287.893 68.2109 288.532 66.9396C289.178 65.6683 290.088 64.6811 291.259 63.978C292.431 63.2749 293.816 62.9233 295.414 62.9233C297.012 62.9233 298.397 63.2749 299.569 63.978C300.741 64.6811 301.646 65.6683 302.286 66.9396C302.932 68.2109 303.255 69.6918 303.255 71.3821C303.255 73.0724 302.932 74.5497 302.286 75.8139C301.646 77.0781 300.741 78.0618 299.569 78.7649C298.397 79.468 297.012 79.8196 295.414 79.8196ZM295.436 76.7301C296.302 76.7301 297.026 76.4922 297.609 76.0163C298.191 75.5334 298.624 74.8871 298.909 74.0774C299.2 73.2678 299.345 72.3658 299.345 71.3714C299.345 70.37 299.2 69.4645 298.909 68.6548C298.624 67.8381 298.191 67.1882 297.609 66.7053C297.026 66.2223 296.302 65.9808 295.436 65.9808C294.548 65.9808 293.809 66.2223 293.22 66.7053C292.637 67.1882 292.2 67.8381 291.909 68.6548C291.625 69.4645 291.483 70.37 291.483 71.3714C291.483 72.3658 291.625 73.2678 291.909 74.0774C292.2 74.8871 292.637 75.5334 293.22 76.0163C293.809 76.4922 294.548 76.7301 295.436 76.7301ZM310.385 69.9119V79.5H306.528V63.1364H310.214V65.9169H310.406C310.783 65.0007 311.383 64.2727 312.207 63.733C313.038 63.1932 314.064 62.9233 315.286 62.9233C316.415 62.9233 317.398 63.1648 318.237 63.6477C319.082 64.1307 319.735 64.8303 320.197 65.7464C320.665 66.6626 320.896 67.7741 320.889 69.081V79.5H317.033V69.6776C317.033 68.5838 316.749 67.728 316.18 67.1101C315.619 66.4922 314.842 66.1832 313.847 66.1832C313.173 66.1832 312.572 66.3324 312.047 66.6307C311.528 66.9219 311.12 67.3445 310.822 67.8984C310.531 68.4524 310.385 69.1236 310.385 69.9119ZM332.981 63.1364V66.1193H323.574V63.1364H332.981ZM325.896 59.2159H329.753V74.5781C329.753 75.0966 329.831 75.4943 329.987 75.7713C330.151 76.0412 330.364 76.2259 330.626 76.3253C330.889 76.4247 331.18 76.4744 331.5 76.4744C331.741 76.4744 331.962 76.4567 332.161 76.4212C332.366 76.3857 332.523 76.3537 332.629 76.3253L333.279 79.3402C333.073 79.4112 332.778 79.4893 332.395 79.5746C332.018 79.6598 331.557 79.7095 331.01 79.7237C330.044 79.7521 329.174 79.6065 328.4 79.2869C327.626 78.9602 327.011 78.456 326.557 77.7741C326.109 77.0923 325.889 76.2401 325.896 75.2173V59.2159ZM340.915 79.8303C339.878 79.8303 338.944 79.6456 338.113 79.2763C337.289 78.8999 336.636 78.3459 336.153 77.6143C335.677 76.8828 335.439 75.9808 335.439 74.9084C335.439 73.9851 335.61 73.2216 335.95 72.6179C336.291 72.0142 336.757 71.5312 337.346 71.169C337.936 70.8068 338.6 70.5334 339.338 70.3487C340.084 70.157 340.855 70.0185 341.65 69.9332C342.609 69.8338 343.387 69.745 343.983 69.6669C344.58 69.5817 345.013 69.4538 345.283 69.2834C345.56 69.1058 345.698 68.8324 345.698 68.4631V68.3991C345.698 67.5966 345.46 66.9751 344.985 66.5348C344.509 66.0945 343.823 65.8743 342.928 65.8743C341.984 65.8743 341.235 66.0803 340.681 66.4922C340.134 66.9041 339.764 67.3906 339.573 67.9517L335.972 67.4403C336.256 66.446 336.725 65.6151 337.378 64.9474C338.031 64.2727 338.83 63.7685 339.775 63.4347C340.72 63.0938 341.764 62.9233 342.907 62.9233C343.695 62.9233 344.48 63.0156 345.262 63.2003C346.043 63.3849 346.757 63.6903 347.403 64.1165C348.049 64.5355 348.568 65.1072 348.958 65.8317C349.356 66.5561 349.555 67.4616 349.555 68.5483V79.5H345.847V77.2521H345.72C345.485 77.7067 345.155 78.1328 344.729 78.5305C344.31 78.9212 343.781 79.2372 343.142 79.4787C342.509 79.7131 341.767 79.8303 340.915 79.8303ZM341.916 76.9964C342.691 76.9964 343.362 76.8437 343.93 76.5384C344.498 76.2259 344.935 75.8139 345.24 75.3026C345.553 74.7912 345.709 74.2337 345.709 73.63V71.7017C345.588 71.8011 345.382 71.8935 345.091 71.9787C344.807 72.0639 344.487 72.1385 344.132 72.2024C343.777 72.2663 343.426 72.3232 343.078 72.3729C342.73 72.4226 342.428 72.4652 342.172 72.5007C341.597 72.5788 341.082 72.7067 340.627 72.8842C340.173 73.0618 339.814 73.3104 339.551 73.63C339.289 73.9425 339.157 74.3473 339.157 74.8445C339.157 75.5547 339.416 76.0909 339.935 76.4531C340.453 76.8153 341.114 76.9964 341.916 76.9964ZM360.57 79.8196C358.937 79.8196 357.534 79.4609 356.362 78.7436C355.198 78.0263 354.299 77.0355 353.667 75.7713C353.042 74.5 352.73 73.0369 352.73 71.3821C352.73 69.7202 353.049 68.2536 353.688 66.9822C354.328 65.7038 355.23 64.7095 356.394 63.9993C357.566 63.282 358.951 62.9233 360.549 62.9233C361.877 62.9233 363.053 63.1683 364.075 63.6584C365.105 64.1413 365.926 64.8267 366.536 65.7145C367.147 66.5952 367.495 67.625 367.58 68.804H363.894C363.745 68.0156 363.39 67.3587 362.829 66.8331C362.275 66.3004 361.533 66.0341 360.602 66.0341C359.814 66.0341 359.122 66.2472 358.525 66.6733C357.928 67.0923 357.463 67.696 357.129 68.4844C356.803 69.2727 356.639 70.2173 356.639 71.3182C356.639 72.4332 356.803 73.392 357.129 74.1946C357.456 74.9901 357.914 75.6044 358.504 76.0376C359.1 76.4638 359.8 76.6768 360.602 76.6768C361.171 76.6768 361.678 76.5703 362.126 76.3572C362.58 76.1371 362.96 75.821 363.266 75.4091C363.571 74.9972 363.781 74.4964 363.894 73.907H367.58C367.488 75.0646 367.147 76.0909 366.558 76.9858C365.968 77.8736 365.166 78.5696 364.15 79.0739C363.134 79.571 361.941 79.8196 360.57 79.8196ZM378.918 63.1364V66.1193H369.511V63.1364H378.918ZM371.834 59.2159H375.69V74.5781C375.69 75.0966 375.768 75.4943 375.925 75.7713C376.088 76.0412 376.301 76.2259 376.564 76.3253C376.827 76.4247 377.118 76.4744 377.438 76.4744C377.679 76.4744 377.899 76.4567 378.098 76.4212C378.304 76.3857 378.46 76.3537 378.567 76.3253L379.217 79.3402C379.011 79.4112 378.716 79.4893 378.332 79.5746C377.956 79.6598 377.494 79.7095 376.947 79.7237C375.982 79.7521 375.112 79.6065 374.337 79.2869C373.563 78.9602 372.949 78.456 372.494 77.7741C372.047 77.0923 371.827 76.2401 371.834 75.2173V59.2159ZM397.149 79.5H389.756V57.6818H397.298C399.464 57.6818 401.325 58.1186 402.881 58.9922C404.443 59.8587 405.643 61.1051 406.481 62.7315C407.319 64.358 407.738 66.304 407.738 68.5696C407.738 70.8423 407.316 72.7955 406.471 74.429C405.633 76.0625 404.422 77.3161 402.838 78.1896C401.261 79.0632 399.365 79.5 397.149 79.5ZM393.708 76.0803H396.957C398.477 76.0803 399.745 75.8033 400.76 75.2493C401.776 74.6882 402.54 73.8537 403.051 72.7457C403.562 71.6307 403.818 70.2386 403.818 68.5696C403.818 66.9006 403.562 65.5156 403.051 64.4148C402.54 63.3068 401.783 62.4794 400.782 61.9325C399.787 61.3786 398.552 61.1016 397.074 61.1016H393.708V76.0803ZM418.568 79.8196C416.927 79.8196 415.51 79.4787 414.317 78.7969C413.131 78.108 412.218 77.1349 411.579 75.8778C410.94 74.6136 410.62 73.1257 410.62 71.4141C410.62 69.7308 410.94 68.2536 411.579 66.9822C412.225 65.7038 413.127 64.7095 414.285 63.9993C415.443 63.282 416.803 62.9233 418.365 62.9233C419.374 62.9233 420.325 63.0866 421.22 63.4134C422.122 63.733 422.918 64.2301 423.607 64.9048C424.303 65.5795 424.85 66.4389 425.247 67.483C425.645 68.5199 425.844 69.7557 425.844 71.1903V72.3729H412.431V69.7734H422.147C422.14 69.0348 421.98 68.3778 421.668 67.8026C421.355 67.2202 420.919 66.7621 420.357 66.4283C419.803 66.0945 419.157 65.9276 418.419 65.9276C417.63 65.9276 416.938 66.1193 416.341 66.5028C415.744 66.8793 415.279 67.3764 414.945 67.9943C414.619 68.6051 414.452 69.2763 414.445 70.0078V72.277C414.445 73.2287 414.619 74.0455 414.967 74.7273C415.315 75.402 415.801 75.9205 416.426 76.2827C417.051 76.6378 417.783 76.8153 418.621 76.8153C419.182 76.8153 419.69 76.7372 420.144 76.581C420.599 76.4176 420.993 76.1797 421.327 75.8672C421.661 75.5547 421.913 75.1676 422.083 74.706L425.684 75.1108C425.457 76.0625 425.024 76.8935 424.384 77.6037C423.752 78.3068 422.943 78.8537 421.955 79.2443C420.968 79.6278 419.839 79.8196 418.568 79.8196ZM437.278 63.1364V66.1193H427.871V63.1364H437.278ZM430.193 59.2159H434.05V74.5781C434.05 75.0966 434.128 75.4943 434.284 75.7713C434.447 76.0412 434.661 76.2259 434.923 76.3253C435.186 76.4247 435.477 76.4744 435.797 76.4744C436.038 76.4744 436.259 76.4567 436.457 76.4212C436.663 76.3857 436.82 76.3537 436.926 76.3253L437.576 79.3402C437.37 79.4112 437.075 79.4893 436.692 79.5746C436.315 79.6598 435.854 79.7095 435.307 79.7237C434.341 79.7521 433.471 79.6065 432.697 79.2869C431.923 78.9602 431.308 78.456 430.854 77.7741C430.406 77.0923 430.186 76.2401 430.193 75.2173V59.2159ZM445.212 79.8303C444.175 79.8303 443.241 79.6456 442.41 79.2763C441.586 78.8999 440.933 78.3459 440.45 77.6143C439.974 76.8828 439.736 75.9808 439.736 74.9084C439.736 73.9851 439.906 73.2216 440.247 72.6179C440.588 72.0142 441.053 71.5312 441.643 71.169C442.232 70.8068 442.896 70.5334 443.635 70.3487C444.381 70.157 445.151 70.0185 445.947 69.9332C446.906 69.8338 447.683 69.745 448.28 69.6669C448.877 69.5817 449.31 69.4538 449.58 69.2834C449.857 69.1058 449.995 68.8324 449.995 68.4631V68.3991C449.995 67.5966 449.757 66.9751 449.281 66.5348C448.806 66.0945 448.12 65.8743 447.225 65.8743C446.281 65.8743 445.531 66.0803 444.977 66.4922C444.431 66.9041 444.061 67.3906 443.869 67.9517L440.269 67.4403C440.553 66.446 441.021 65.6151 441.675 64.9474C442.328 64.2727 443.127 63.7685 444.072 63.4347C445.017 63.0938 446.061 62.9233 447.204 62.9233C447.992 62.9233 448.777 63.0156 449.558 63.2003C450.34 63.3849 451.053 63.6903 451.7 64.1165C452.346 64.5355 452.865 65.1072 453.255 65.8317C453.653 66.5561 453.852 67.4616 453.852 68.5483V79.5H450.144V77.2521H450.017C449.782 77.7067 449.452 78.1328 449.026 78.5305C448.607 78.9212 448.078 79.2372 447.438 79.4787C446.806 79.7131 446.064 79.8303 445.212 79.8303ZM446.213 76.9964C446.987 76.9964 447.659 76.8437 448.227 76.5384C448.795 76.2259 449.232 75.8139 449.537 75.3026C449.85 74.7912 450.006 74.2337 450.006 73.63V71.7017C449.885 71.8011 449.679 71.8935 449.388 71.9787C449.104 72.0639 448.784 72.1385 448.429 72.2024C448.074 72.2663 447.722 72.3232 447.374 72.3729C447.026 72.4226 446.725 72.4652 446.469 72.5007C445.894 72.5788 445.379 72.7067 444.924 72.8842C444.47 73.0618 444.111 73.3104 443.848 73.63C443.585 73.9425 443.454 74.3473 443.454 74.8445C443.454 75.5547 443.713 76.0909 444.232 76.4531C444.75 76.8153 445.411 76.9964 446.213 76.9964ZM457.73 79.5V63.1364H461.586V79.5H457.73ZM459.669 60.8139C459.058 60.8139 458.532 60.6115 458.092 60.2067C457.651 59.7947 457.431 59.3011 457.431 58.7259C457.431 58.1435 457.651 57.6499 458.092 57.245C458.532 56.8331 459.058 56.6271 459.669 56.6271C460.286 56.6271 460.812 56.8331 461.245 57.245C461.686 57.6499 461.906 58.1435 461.906 58.7259C461.906 59.3011 461.686 59.7947 461.245 60.2067C460.812 60.6115 460.286 60.8139 459.669 60.8139ZM469.408 57.6818V79.5H465.552V57.6818H469.408ZM486.307 67.4616L482.792 67.8452C482.692 67.4901 482.518 67.1562 482.27 66.8438C482.028 66.5312 481.702 66.2791 481.29 66.0874C480.878 65.8956 480.373 65.7997 479.777 65.7997C478.974 65.7997 478.3 65.9737 477.753 66.3217C477.213 66.6697 476.947 67.1207 476.954 67.6747C476.947 68.1506 477.121 68.5376 477.476 68.8359C477.838 69.1342 478.434 69.3793 479.265 69.571L482.057 70.1676C483.605 70.5014 484.756 71.0305 485.508 71.755C486.268 72.4794 486.652 73.4276 486.659 74.5994C486.652 75.6293 486.35 76.5384 485.753 77.3267C485.164 78.108 484.344 78.7187 483.292 79.1591C482.241 79.5994 481.034 79.8196 479.67 79.8196C477.667 79.8196 476.055 79.4006 474.834 78.5625C473.612 77.7173 472.884 76.5419 472.65 75.0362L476.41 74.674C476.581 75.4126 476.943 75.9702 477.497 76.3466C478.051 76.723 478.772 76.9112 479.66 76.9112C480.576 76.9112 481.311 76.723 481.865 76.3466C482.426 75.9702 482.706 75.505 482.706 74.951C482.706 74.4822 482.525 74.0952 482.163 73.7898C481.808 73.4844 481.254 73.25 480.501 73.0866L477.71 72.5007C476.14 72.174 474.979 71.6236 474.226 70.8494C473.474 70.0682 473.101 69.081 473.108 67.8878C473.101 66.8793 473.374 66.0057 473.928 65.267C474.489 64.5213 475.267 63.946 476.261 63.5412C477.263 63.1293 478.417 62.9233 479.724 62.9233C481.641 62.9233 483.15 63.3317 484.251 64.1484C485.359 64.9652 486.045 66.0696 486.307 67.4616Z" fill="white"/>
<path d="M275.438 101.631C275.347 100.824 274.972 100.199 274.312 99.7557C273.653 99.3068 272.824 99.0824 271.824 99.0824C271.108 99.0824 270.489 99.196 269.966 99.4233C269.443 99.6449 269.037 99.9517 268.747 100.344C268.463 100.73 268.321 101.17 268.321 101.665C268.321 102.08 268.418 102.437 268.611 102.739C268.81 103.04 269.068 103.293 269.386 103.497C269.71 103.696 270.057 103.864 270.426 104C270.795 104.131 271.151 104.239 271.491 104.324L273.196 104.767C273.753 104.903 274.324 105.088 274.909 105.321C275.494 105.554 276.037 105.861 276.537 106.241C277.037 106.622 277.44 107.094 277.747 107.656C278.06 108.219 278.216 108.892 278.216 109.676C278.216 110.665 277.96 111.543 277.449 112.31C276.943 113.077 276.207 113.682 275.241 114.125C274.281 114.568 273.119 114.79 271.756 114.79C270.449 114.79 269.318 114.582 268.364 114.168C267.409 113.753 266.662 113.165 266.122 112.403C265.582 111.636 265.284 110.727 265.227 109.676H267.869C267.92 110.307 268.125 110.832 268.483 111.253C268.847 111.668 269.31 111.977 269.872 112.182C270.44 112.381 271.062 112.48 271.739 112.48C272.483 112.48 273.145 112.364 273.724 112.131C274.31 111.892 274.77 111.562 275.105 111.142C275.44 110.716 275.608 110.219 275.608 109.651C275.608 109.134 275.46 108.71 275.165 108.381C274.875 108.051 274.48 107.778 273.98 107.562C273.486 107.347 272.926 107.156 272.301 106.991L270.239 106.429C268.841 106.048 267.733 105.489 266.915 104.75C266.102 104.011 265.696 103.034 265.696 101.818C265.696 100.812 265.969 99.9347 266.514 99.1847C267.06 98.4347 267.798 97.8523 268.73 97.4375C269.662 97.017 270.713 96.8068 271.884 96.8068C273.065 96.8068 274.108 97.0142 275.011 97.429C275.92 97.8438 276.636 98.4148 277.159 99.142C277.682 99.8636 277.955 100.693 277.977 101.631H275.438ZM286.8 114.764C285.511 114.764 284.4 114.489 283.468 113.938C282.542 113.381 281.826 112.599 281.32 111.594C280.82 110.582 280.57 109.398 280.57 108.04C280.57 106.699 280.82 105.517 281.32 104.494C281.826 103.472 282.531 102.673 283.434 102.099C284.343 101.526 285.406 101.239 286.621 101.239C287.36 101.239 288.076 101.361 288.769 101.605C289.462 101.849 290.085 102.233 290.636 102.756C291.187 103.278 291.621 103.957 291.94 104.793C292.258 105.622 292.417 106.631 292.417 107.818V108.722H282.011V106.812H289.92C289.92 106.142 289.783 105.548 289.511 105.031C289.238 104.509 288.854 104.097 288.36 103.795C287.871 103.494 287.298 103.344 286.638 103.344C285.923 103.344 285.298 103.52 284.763 103.872C284.235 104.219 283.826 104.673 283.536 105.236C283.252 105.793 283.11 106.398 283.11 107.051V108.543C283.11 109.418 283.263 110.162 283.57 110.776C283.883 111.389 284.317 111.858 284.874 112.182C285.431 112.5 286.082 112.659 286.826 112.659C287.309 112.659 287.749 112.591 288.147 112.455C288.545 112.312 288.888 112.102 289.178 111.824C289.468 111.545 289.69 111.202 289.843 110.793L292.255 111.227C292.062 111.937 291.715 112.56 291.215 113.094C290.721 113.622 290.099 114.034 289.349 114.33C288.604 114.619 287.755 114.764 286.8 114.764ZM300.759 114.764C299.491 114.764 298.401 114.477 297.486 113.903C296.577 113.324 295.878 112.526 295.389 111.509C294.901 110.491 294.656 109.327 294.656 108.014C294.656 106.685 294.906 105.511 295.406 104.494C295.906 103.472 296.611 102.673 297.52 102.099C298.429 101.526 299.5 101.239 300.733 101.239C301.727 101.239 302.614 101.423 303.392 101.793C304.17 102.156 304.798 102.668 305.276 103.327C305.759 103.986 306.045 104.756 306.136 105.636H303.656C303.52 105.023 303.207 104.494 302.719 104.051C302.236 103.608 301.588 103.386 300.776 103.386C300.065 103.386 299.443 103.574 298.909 103.949C298.381 104.318 297.969 104.847 297.673 105.534C297.378 106.216 297.23 107.023 297.23 107.955C297.23 108.909 297.375 109.733 297.665 110.426C297.955 111.119 298.364 111.656 298.892 112.037C299.426 112.418 300.054 112.608 300.776 112.608C301.259 112.608 301.696 112.52 302.088 112.344C302.486 112.162 302.818 111.903 303.085 111.568C303.358 111.233 303.548 110.83 303.656 110.358H306.136C306.045 111.205 305.77 111.96 305.31 112.625C304.849 113.29 304.233 113.812 303.46 114.193C302.693 114.574 301.793 114.764 300.759 114.764ZM317.154 109.071V101.409H319.711V114.5H317.205V112.233H317.069C316.768 112.932 316.285 113.514 315.62 113.98C314.961 114.44 314.14 114.67 313.157 114.67C312.316 114.67 311.572 114.486 310.924 114.116C310.282 113.741 309.776 113.188 309.407 112.455C309.043 111.722 308.862 110.815 308.862 109.736V101.409H311.41V109.429C311.41 110.321 311.657 111.031 312.151 111.56C312.646 112.088 313.288 112.352 314.077 112.352C314.555 112.352 315.029 112.233 315.501 111.994C315.978 111.756 316.373 111.395 316.685 110.912C317.004 110.429 317.16 109.815 317.154 109.071ZM323.135 114.5V101.409H325.598V103.489H325.734C325.973 102.784 326.393 102.23 326.996 101.827C327.604 101.418 328.291 101.213 329.058 101.213C329.217 101.213 329.405 101.219 329.621 101.23C329.842 101.241 330.016 101.256 330.141 101.273V103.71C330.038 103.682 329.857 103.651 329.595 103.616C329.334 103.577 329.072 103.557 328.811 103.557C328.209 103.557 327.672 103.685 327.2 103.94C326.734 104.19 326.365 104.54 326.092 104.989C325.82 105.432 325.683 105.937 325.683 106.506V114.5H323.135ZM332.346 114.5V101.409H334.894V114.5H332.346ZM333.633 99.3892C333.19 99.3892 332.809 99.2415 332.491 98.946C332.178 98.6449 332.022 98.2869 332.022 97.8722C332.022 97.4517 332.178 97.0937 332.491 96.7983C332.809 96.4972 333.19 96.3466 333.633 96.3466C334.076 96.3466 334.454 96.4972 334.766 96.7983C335.085 97.0937 335.244 97.4517 335.244 97.8722C335.244 98.2869 335.085 98.6449 334.766 98.946C334.454 99.2415 334.076 99.3892 333.633 99.3892ZM344.433 101.409V103.455H337.283V101.409H344.433ZM339.2 98.2727H341.749V110.656C341.749 111.151 341.822 111.523 341.97 111.773C342.118 112.017 342.308 112.185 342.541 112.276C342.78 112.361 343.038 112.403 343.317 112.403C343.521 112.403 343.7 112.389 343.854 112.361C344.007 112.332 344.126 112.31 344.212 112.293L344.672 114.398C344.524 114.455 344.314 114.511 344.041 114.568C343.768 114.631 343.428 114.665 343.018 114.67C342.348 114.682 341.723 114.562 341.143 114.312C340.564 114.062 340.095 113.676 339.737 113.153C339.379 112.631 339.2 111.974 339.2 111.185V98.2727ZM348.863 119.409C348.482 119.409 348.136 119.378 347.823 119.315C347.511 119.259 347.278 119.196 347.124 119.128L347.738 117.04C348.204 117.165 348.619 117.219 348.982 117.202C349.346 117.185 349.667 117.048 349.945 116.793C350.229 116.537 350.479 116.119 350.695 115.54L351.011 114.67L346.221 101.409H348.948L352.263 111.568H352.4L355.715 101.409H358.451L353.056 116.247C352.806 116.929 352.488 117.506 352.102 117.977C351.715 118.455 351.255 118.813 350.721 119.051C350.187 119.29 349.567 119.409 348.863 119.409ZM367.402 114.5V97.0455H370.036V104.631H378.737V97.0455H381.379V114.5H378.737V106.889H370.036V114.5H367.402ZM390.652 114.764C389.362 114.764 388.251 114.489 387.32 113.938C386.393 113.381 385.678 112.599 385.172 111.594C384.672 110.582 384.422 109.398 384.422 108.04C384.422 106.699 384.672 105.517 385.172 104.494C385.678 103.472 386.382 102.673 387.286 102.099C388.195 101.526 389.257 101.239 390.473 101.239C391.212 101.239 391.928 101.361 392.621 101.605C393.314 101.849 393.936 102.233 394.487 102.756C395.038 103.278 395.473 103.957 395.791 104.793C396.109 105.622 396.268 106.631 396.268 107.818V108.722H385.862V106.812H393.771C393.771 106.142 393.635 105.548 393.362 105.031C393.089 104.509 392.706 104.097 392.212 103.795C391.723 103.494 391.149 103.344 390.49 103.344C389.774 103.344 389.149 103.52 388.615 103.872C388.087 104.219 387.678 104.673 387.388 105.236C387.104 105.793 386.962 106.398 386.962 107.051V108.543C386.962 109.418 387.115 110.162 387.422 110.776C387.734 111.389 388.169 111.858 388.726 112.182C389.283 112.5 389.933 112.659 390.678 112.659C391.161 112.659 391.601 112.591 391.999 112.455C392.396 112.312 392.74 112.102 393.03 111.824C393.32 111.545 393.541 111.202 393.695 110.793L396.107 111.227C395.913 111.937 395.567 112.56 395.067 113.094C394.572 113.622 393.95 114.034 393.2 114.33C392.456 114.619 391.607 114.764 390.652 114.764ZM402.906 114.79C402.076 114.79 401.326 114.636 400.656 114.33C399.985 114.017 399.454 113.565 399.062 112.974C398.675 112.384 398.482 111.659 398.482 110.801C398.482 110.062 398.624 109.455 398.908 108.977C399.192 108.5 399.576 108.122 400.059 107.844C400.542 107.565 401.082 107.355 401.678 107.213C402.275 107.071 402.883 106.963 403.502 106.889C404.286 106.798 404.923 106.724 405.411 106.668C405.9 106.605 406.255 106.506 406.477 106.369C406.698 106.233 406.809 106.011 406.809 105.705V105.645C406.809 104.901 406.599 104.324 406.178 103.915C405.763 103.506 405.144 103.301 404.32 103.301C403.462 103.301 402.786 103.491 402.292 103.872C401.803 104.247 401.465 104.665 401.278 105.125L398.883 104.58C399.167 103.784 399.582 103.142 400.127 102.653C400.678 102.159 401.312 101.801 402.028 101.58C402.744 101.352 403.496 101.239 404.286 101.239C404.809 101.239 405.363 101.301 405.948 101.426C406.539 101.545 407.09 101.767 407.602 102.091C408.119 102.415 408.542 102.878 408.871 103.48C409.201 104.077 409.366 104.852 409.366 105.807V114.5H406.877V112.71H406.775C406.61 113.04 406.363 113.364 406.033 113.682C405.704 114 405.281 114.264 404.763 114.474C404.246 114.685 403.627 114.79 402.906 114.79ZM403.46 112.744C404.164 112.744 404.766 112.605 405.266 112.327C405.772 112.048 406.156 111.685 406.417 111.236C406.684 110.781 406.817 110.295 406.817 109.778V108.091C406.727 108.182 406.55 108.267 406.289 108.347C406.033 108.42 405.741 108.486 405.411 108.543C405.082 108.594 404.761 108.642 404.448 108.688C404.136 108.727 403.874 108.761 403.664 108.79C403.17 108.852 402.718 108.957 402.309 109.105C401.906 109.253 401.582 109.466 401.337 109.744C401.099 110.017 400.979 110.381 400.979 110.835C400.979 111.466 401.212 111.943 401.678 112.267C402.144 112.585 402.738 112.744 403.46 112.744ZM417.661 114.756C416.604 114.756 415.661 114.486 414.831 113.946C414.007 113.401 413.359 112.625 412.888 111.619C412.422 110.608 412.189 109.395 412.189 107.98C412.189 106.565 412.425 105.355 412.896 104.349C413.374 103.344 414.027 102.574 414.857 102.04C415.686 101.506 416.626 101.239 417.678 101.239C418.49 101.239 419.143 101.375 419.638 101.648C420.138 101.915 420.524 102.227 420.797 102.585C421.075 102.943 421.291 103.259 421.445 103.531H421.598V97.0455H424.146V114.5H421.658V112.463H421.445C421.291 112.741 421.07 113.06 420.78 113.418C420.496 113.776 420.104 114.088 419.604 114.355C419.104 114.622 418.456 114.756 417.661 114.756ZM418.223 112.582C418.956 112.582 419.575 112.389 420.081 112.003C420.592 111.611 420.979 111.068 421.24 110.375C421.507 109.682 421.641 108.875 421.641 107.955C421.641 107.045 421.51 106.25 421.249 105.568C420.987 104.886 420.604 104.355 420.098 103.974C419.592 103.594 418.967 103.403 418.223 103.403C417.456 103.403 416.817 103.602 416.305 104C415.794 104.398 415.408 104.94 415.146 105.628C414.891 106.315 414.763 107.091 414.763 107.955C414.763 108.83 414.893 109.616 415.155 110.315C415.416 111.014 415.803 111.568 416.314 111.977C416.831 112.381 417.467 112.582 418.223 112.582ZM429.462 114.662C428.996 114.662 428.596 114.497 428.261 114.168C427.925 113.832 427.758 113.429 427.758 112.957C427.758 112.491 427.925 112.094 428.261 111.764C428.596 111.429 428.996 111.261 429.462 111.261C429.928 111.261 430.329 111.429 430.664 111.764C430.999 112.094 431.167 112.491 431.167 112.957C431.167 113.27 431.087 113.557 430.928 113.818C430.775 114.074 430.57 114.278 430.315 114.432C430.059 114.585 429.775 114.662 429.462 114.662ZM429.462 105.134C428.996 105.134 428.596 104.966 428.261 104.631C427.925 104.295 427.758 103.895 427.758 103.429C427.758 102.963 427.925 102.565 428.261 102.236C428.596 101.901 428.996 101.733 429.462 101.733C429.928 101.733 430.329 101.901 430.664 102.236C430.999 102.565 431.167 102.963 431.167 103.429C431.167 103.741 431.087 104.028 430.928 104.29C430.775 104.545 430.57 104.75 430.315 104.903C430.059 105.057 429.775 105.134 429.462 105.134ZM446.062 111.568V100.045H448.355V111.568H446.062ZM441.452 106.949V104.665H452.974V106.949H441.452ZM462.686 96.8068C463.464 96.8125 464.232 96.9545 464.987 97.233C465.743 97.5114 466.425 97.9659 467.033 98.5966C467.646 99.2273 468.135 100.08 468.499 101.153C468.868 102.222 469.055 103.551 469.061 105.142C469.061 106.67 468.908 108.031 468.601 109.224C468.294 110.412 467.854 111.415 467.28 112.233C466.712 113.051 466.021 113.673 465.209 114.099C464.396 114.526 463.482 114.739 462.464 114.739C461.425 114.739 460.501 114.534 459.695 114.125C458.888 113.716 458.232 113.151 457.726 112.429C457.22 111.702 456.905 110.866 456.78 109.923H459.379C459.55 110.673 459.896 111.281 460.419 111.747C460.947 112.207 461.629 112.438 462.464 112.438C463.743 112.438 464.74 111.881 465.456 110.767C466.172 109.648 466.533 108.085 466.538 106.08H466.402C466.107 106.568 465.737 106.989 465.294 107.341C464.857 107.693 464.365 107.966 463.82 108.159C463.274 108.352 462.692 108.449 462.072 108.449C461.067 108.449 460.152 108.202 459.328 107.707C458.504 107.213 457.848 106.534 457.359 105.67C456.871 104.807 456.626 103.821 456.626 102.713C456.626 101.611 456.876 100.611 457.376 99.7131C457.882 98.8153 458.587 98.1051 459.49 97.5824C460.399 97.054 461.464 96.7955 462.686 96.8068ZM462.695 99.0227C462.03 99.0227 461.43 99.1875 460.896 99.517C460.368 99.8409 459.95 100.281 459.643 100.838C459.337 101.389 459.183 102.003 459.183 102.679C459.183 103.355 459.331 103.969 459.626 104.52C459.928 105.065 460.337 105.5 460.854 105.824C461.376 106.142 461.973 106.301 462.643 106.301C463.143 106.301 463.609 106.205 464.041 106.011C464.473 105.818 464.851 105.551 465.175 105.21C465.499 104.864 465.751 104.472 465.933 104.034C466.115 103.597 466.206 103.136 466.206 102.653C466.206 102.011 466.053 101.415 465.746 100.864C465.445 100.312 465.03 99.8693 464.501 99.5341C463.973 99.1932 463.371 99.0227 462.695 99.0227ZM478.762 97.0455V114.5H476.12V99.6875H476.018L471.842 102.415V99.892L476.197 97.0455H478.762ZM495.639 96.8068C496.418 96.8125 497.185 96.9545 497.94 97.233C498.696 97.5114 499.378 97.9659 499.986 98.5966C500.599 99.2273 501.088 100.08 501.452 101.153C501.821 102.222 502.009 103.551 502.014 105.142C502.014 106.67 501.861 108.031 501.554 109.224C501.247 110.412 500.807 111.415 500.233 112.233C499.665 113.051 498.974 113.673 498.162 114.099C497.349 114.526 496.435 114.739 495.418 114.739C494.378 114.739 493.455 114.534 492.648 114.125C491.841 113.716 491.185 113.151 490.679 112.429C490.173 111.702 489.858 110.866 489.733 109.923H492.332C492.503 110.673 492.849 111.281 493.372 111.747C493.901 112.207 494.582 112.438 495.418 112.438C496.696 112.438 497.693 111.881 498.409 110.767C499.125 109.648 499.486 108.085 499.491 106.08H499.355C499.06 106.568 498.69 106.989 498.247 107.341C497.81 107.693 497.318 107.966 496.773 108.159C496.227 108.352 495.645 108.449 495.026 108.449C494.02 108.449 493.105 108.202 492.281 107.707C491.457 107.213 490.801 106.534 490.312 105.67C489.824 104.807 489.58 103.821 489.58 102.713C489.58 101.611 489.83 100.611 490.33 99.7131C490.835 98.8153 491.54 98.1051 492.443 97.5824C493.352 97.054 494.418 96.7955 495.639 96.8068ZM495.648 99.0227C494.983 99.0227 494.384 99.1875 493.849 99.517C493.321 99.8409 492.903 100.281 492.597 100.838C492.29 101.389 492.136 102.003 492.136 102.679C492.136 103.355 492.284 103.969 492.58 104.52C492.881 105.065 493.29 105.5 493.807 105.824C494.33 106.142 494.926 106.301 495.597 106.301C496.097 106.301 496.563 106.205 496.994 106.011C497.426 105.818 497.804 105.551 498.128 105.21C498.452 104.864 498.705 104.472 498.886 104.034C499.068 103.597 499.159 103.136 499.159 102.653C499.159 102.011 499.006 101.415 498.699 100.864C498.398 100.312 497.983 99.8693 497.455 99.5341C496.926 99.1932 496.324 99.0227 495.648 99.0227ZM511.715 97.0455V114.5H509.073V99.6875H508.971L504.795 102.415V99.892L509.15 97.0455H511.715ZM522.513 114.79C521.167 114.784 520.016 114.429 519.062 113.724C518.107 113.02 517.377 111.994 516.871 110.648C516.366 109.301 516.113 107.679 516.113 105.781C516.113 103.889 516.366 102.273 516.871 100.932C517.383 99.5909 518.116 98.5682 519.07 97.8636C520.031 97.1591 521.178 96.8068 522.513 96.8068C523.849 96.8068 524.994 97.1619 525.948 97.8722C526.903 98.5767 527.633 99.5994 528.138 100.94C528.65 102.276 528.906 103.889 528.906 105.781C528.906 107.685 528.653 109.31 528.147 110.656C527.641 111.997 526.911 113.023 525.957 113.733C525.002 114.438 523.854 114.79 522.513 114.79ZM522.513 112.514C523.695 112.514 524.619 111.938 525.283 110.784C525.954 109.631 526.289 107.963 526.289 105.781C526.289 104.332 526.136 103.108 525.829 102.108C525.528 101.102 525.093 100.341 524.525 99.8239C523.962 99.3011 523.292 99.0398 522.513 99.0398C521.337 99.0398 520.414 99.6193 519.744 100.778C519.073 101.937 518.735 103.605 518.729 105.781C518.729 107.236 518.88 108.466 519.181 109.472C519.488 110.472 519.923 111.23 520.485 111.747C521.048 112.259 521.724 112.514 522.513 112.514ZM544.903 97.0455V114.5H542.261V99.6875H542.158L537.982 102.415V99.892L542.337 97.0455H544.903ZM550.212 114.5L557.832 99.4318V99.304H549.019V97.0455H560.559V99.3807L552.965 114.5H550.212ZM569.092 96.8068C569.871 96.8125 570.638 96.9545 571.393 97.233C572.149 97.5114 572.831 97.9659 573.439 98.5966C574.053 99.2273 574.541 100.08 574.905 101.153C575.274 102.222 575.462 103.551 575.467 105.142C575.467 106.67 575.314 108.031 575.007 109.224C574.7 110.412 574.26 111.415 573.686 112.233C573.118 113.051 572.428 113.673 571.615 114.099C570.803 114.526 569.888 114.739 568.871 114.739C567.831 114.739 566.908 114.534 566.101 114.125C565.294 113.716 564.638 113.151 564.132 112.429C563.626 111.702 563.311 110.866 563.186 109.923H565.786C565.956 110.673 566.303 111.281 566.825 111.747C567.354 112.207 568.036 112.438 568.871 112.438C570.149 112.438 571.146 111.881 571.862 110.767C572.578 109.648 572.939 108.085 572.945 106.08H572.808C572.513 106.568 572.143 106.989 571.7 107.341C571.263 107.693 570.771 107.966 570.226 108.159C569.68 108.352 569.098 108.449 568.479 108.449C567.473 108.449 566.558 108.202 565.734 107.707C564.911 107.213 564.254 106.534 563.766 105.67C563.277 104.807 563.033 103.821 563.033 102.713C563.033 101.611 563.283 100.611 563.783 99.7131C564.288 98.8153 564.993 98.1051 565.896 97.5824C566.805 97.054 567.871 96.7955 569.092 96.8068ZM569.101 99.0227C568.436 99.0227 567.837 99.1875 567.303 99.517C566.774 99.8409 566.357 100.281 566.05 100.838C565.743 101.389 565.589 102.003 565.589 102.679C565.589 103.355 565.737 103.969 566.033 104.52C566.334 105.065 566.743 105.5 567.26 105.824C567.783 106.142 568.379 106.301 569.05 106.301C569.55 106.301 570.016 106.205 570.447 106.011C570.879 105.818 571.257 105.551 571.581 105.21C571.905 104.864 572.158 104.472 572.339 104.034C572.521 103.597 572.612 103.136 572.612 102.653C572.612 102.011 572.459 101.415 572.152 100.864C571.851 100.312 571.436 99.8693 570.908 99.5341C570.379 99.1932 569.777 99.0227 569.101 99.0227ZM584.308 114.739C583.239 114.739 582.279 114.534 581.427 114.125C580.58 113.71 579.904 113.142 579.398 112.42C578.893 111.699 578.623 110.875 578.589 109.949H581.146C581.208 110.699 581.54 111.315 582.143 111.798C582.745 112.281 583.467 112.523 584.308 112.523C584.978 112.523 585.572 112.369 586.089 112.062C586.612 111.75 587.021 111.321 587.316 110.776C587.617 110.23 587.768 109.608 587.768 108.909C587.768 108.199 587.614 107.565 587.308 107.009C587.001 106.452 586.577 106.014 586.038 105.696C585.504 105.378 584.89 105.216 584.197 105.21C583.668 105.21 583.137 105.301 582.603 105.483C582.069 105.665 581.637 105.903 581.308 106.199L578.896 105.841L579.876 97.0455H589.472V99.304H582.066L581.512 104.188H581.614C581.955 103.858 582.407 103.582 582.969 103.361C583.538 103.139 584.146 103.028 584.793 103.028C585.856 103.028 586.802 103.281 587.631 103.787C588.467 104.293 589.123 104.983 589.6 105.858C590.083 106.727 590.322 107.727 590.316 108.858C590.322 109.989 590.066 110.997 589.549 111.884C589.038 112.77 588.327 113.469 587.418 113.98C586.515 114.486 585.478 114.739 584.308 114.739ZM605.542 114.739C604.474 114.739 603.513 114.534 602.661 114.125C601.815 113.71 601.138 113.142 600.633 112.42C600.127 111.699 599.857 110.875 599.823 109.949H602.38C602.442 110.699 602.775 111.315 603.377 111.798C603.979 112.281 604.701 112.523 605.542 112.523C606.212 112.523 606.806 112.369 607.323 112.062C607.846 111.75 608.255 111.321 608.55 110.776C608.852 110.23 609.002 109.608 609.002 108.909C609.002 108.199 608.849 107.565 608.542 107.009C608.235 106.452 607.812 106.014 607.272 105.696C606.738 105.378 606.124 105.216 605.431 105.21C604.903 105.21 604.371 105.301 603.837 105.483C603.303 105.665 602.871 105.903 602.542 106.199L600.13 105.841L601.11 97.0455H610.707V99.304H603.3L602.746 104.188H602.849C603.19 103.858 603.641 103.582 604.204 103.361C604.772 103.139 605.38 103.028 606.028 103.028C607.09 103.028 608.036 103.281 608.866 103.787C609.701 104.293 610.357 104.983 610.835 105.858C611.317 106.727 611.556 107.727 611.55 108.858C611.556 109.989 611.3 110.997 610.783 111.884C610.272 112.77 609.562 113.469 608.653 113.98C607.749 114.486 606.712 114.739 605.542 114.739ZM615.251 114.5L622.871 99.4318V99.304H614.058V97.0455H625.598V99.3807L618.004 114.5H615.251ZM634.108 114.739C632.886 114.739 631.807 114.528 630.869 114.108C629.938 113.687 629.207 113.108 628.679 112.369C628.151 111.631 627.889 110.79 627.895 109.847C627.889 109.108 628.04 108.429 628.347 107.81C628.659 107.185 629.082 106.665 629.616 106.25C630.151 105.83 630.747 105.562 631.406 105.449V105.347C630.537 105.136 629.841 104.67 629.318 103.949C628.795 103.227 628.537 102.398 628.543 101.46C628.537 100.568 628.773 99.7727 629.25 99.0739C629.733 98.3693 630.395 97.8153 631.236 97.4119C632.077 97.0085 633.034 96.8068 634.108 96.8068C635.17 96.8068 636.119 97.0114 636.955 97.4205C637.795 97.8239 638.457 98.3778 638.94 99.0824C639.423 99.7812 639.668 100.574 639.673 101.46C639.668 102.398 639.401 103.227 638.872 103.949C638.344 104.67 637.656 105.136 636.81 105.347V105.449C637.463 105.562 638.051 105.83 638.574 106.25C639.102 106.665 639.523 107.185 639.835 107.81C640.153 108.429 640.315 109.108 640.321 109.847C640.315 110.79 640.048 111.631 639.52 112.369C638.991 113.108 638.259 113.687 637.321 114.108C636.389 114.528 635.318 114.739 634.108 114.739ZM634.108 112.582C634.83 112.582 635.455 112.463 635.983 112.224C636.511 111.98 636.92 111.642 637.21 111.21C637.5 110.773 637.648 110.261 637.653 109.676C637.648 109.068 637.489 108.531 637.176 108.065C636.869 107.599 636.452 107.233 635.923 106.966C635.395 106.699 634.79 106.565 634.108 106.565C633.42 106.565 632.81 106.699 632.276 106.966C631.741 107.233 631.321 107.599 631.014 108.065C630.707 108.531 630.557 109.068 630.562 109.676C630.557 110.261 630.696 110.773 630.98 111.21C631.27 111.642 631.682 111.98 632.216 112.224C632.75 112.463 633.381 112.582 634.108 112.582ZM634.108 104.46C634.688 104.46 635.202 104.344 635.651 104.111C636.099 103.878 636.452 103.554 636.707 103.139C636.969 102.724 637.102 102.239 637.108 101.682C637.102 101.136 636.972 100.659 636.716 100.25C636.466 99.8409 636.116 99.5256 635.668 99.304C635.219 99.0767 634.699 98.9631 634.108 98.9631C633.506 98.9631 632.977 99.0767 632.523 99.304C632.074 99.5256 631.724 99.8409 631.474 100.25C631.224 100.659 631.102 101.136 631.108 101.682C631.102 102.239 631.227 102.724 631.483 103.139C631.739 103.554 632.091 103.878 632.54 104.111C632.994 104.344 633.517 104.46 634.108 104.46ZM275.438 138.631C275.347 137.824 274.972 137.199 274.312 136.756C273.653 136.307 272.824 136.082 271.824 136.082C271.108 136.082 270.489 136.196 269.966 136.423C269.443 136.645 269.037 136.952 268.747 137.344C268.463 137.73 268.321 138.17 268.321 138.665C268.321 139.08 268.418 139.437 268.611 139.739C268.81 140.04 269.068 140.293 269.386 140.497C269.71 140.696 270.057 140.864 270.426 141C270.795 141.131 271.151 141.239 271.491 141.324L273.196 141.767C273.753 141.903 274.324 142.088 274.909 142.321C275.494 142.554 276.037 142.861 276.537 143.241C277.037 143.622 277.44 144.094 277.747 144.656C278.06 145.219 278.216 145.892 278.216 146.676C278.216 147.665 277.96 148.543 277.449 149.31C276.943 150.077 276.207 150.682 275.241 151.125C274.281 151.568 273.119 151.79 271.756 151.79C270.449 151.79 269.318 151.582 268.364 151.168C267.409 150.753 266.662 150.165 266.122 149.403C265.582 148.636 265.284 147.727 265.227 146.676H267.869C267.92 147.307 268.125 147.832 268.483 148.253C268.847 148.668 269.31 148.977 269.872 149.182C270.44 149.381 271.062 149.48 271.739 149.48C272.483 149.48 273.145 149.364 273.724 149.131C274.31 148.892 274.77 148.562 275.105 148.142C275.44 147.716 275.608 147.219 275.608 146.651C275.608 146.134 275.46 145.71 275.165 145.381C274.875 145.051 274.48 144.778 273.98 144.562C273.486 144.347 272.926 144.156 272.301 143.991L270.239 143.429C268.841 143.048 267.733 142.489 266.915 141.75C266.102 141.011 265.696 140.034 265.696 138.818C265.696 137.812 265.969 136.935 266.514 136.185C267.06 135.435 267.798 134.852 268.73 134.438C269.662 134.017 270.713 133.807 271.884 133.807C273.065 133.807 274.108 134.014 275.011 134.429C275.92 134.844 276.636 135.415 277.159 136.142C277.682 136.864 277.955 137.693 277.977 138.631H275.438ZM286.8 151.764C285.511 151.764 284.4 151.489 283.468 150.938C282.542 150.381 281.826 149.599 281.32 148.594C280.82 147.582 280.57 146.398 280.57 145.04C280.57 143.699 280.82 142.517 281.32 141.494C281.826 140.472 282.531 139.673 283.434 139.099C284.343 138.526 285.406 138.239 286.621 138.239C287.36 138.239 288.076 138.361 288.769 138.605C289.462 138.849 290.085 139.233 290.636 139.756C291.187 140.278 291.621 140.957 291.94 141.793C292.258 142.622 292.417 143.631 292.417 144.818V145.722H282.011V143.812H289.92C289.92 143.142 289.783 142.548 289.511 142.031C289.238 141.509 288.854 141.097 288.36 140.795C287.871 140.494 287.298 140.344 286.638 140.344C285.923 140.344 285.298 140.52 284.763 140.872C284.235 141.219 283.826 141.673 283.536 142.236C283.252 142.793 283.11 143.398 283.11 144.051V145.543C283.11 146.418 283.263 147.162 283.57 147.776C283.883 148.389 284.317 148.858 284.874 149.182C285.431 149.5 286.082 149.659 286.826 149.659C287.309 149.659 287.749 149.591 288.147 149.455C288.545 149.312 288.888 149.102 289.178 148.824C289.468 148.545 289.69 148.202 289.843 147.793L292.255 148.227C292.062 148.937 291.715 149.56 291.215 150.094C290.721 150.622 290.099 151.034 289.349 151.33C288.604 151.619 287.755 151.764 286.8 151.764ZM300.759 151.764C299.491 151.764 298.401 151.477 297.486 150.903C296.577 150.324 295.878 149.526 295.389 148.509C294.901 147.491 294.656 146.327 294.656 145.014C294.656 143.685 294.906 142.511 295.406 141.494C295.906 140.472 296.611 139.673 297.52 139.099C298.429 138.526 299.5 138.239 300.733 138.239C301.727 138.239 302.614 138.423 303.392 138.793C304.17 139.156 304.798 139.668 305.276 140.327C305.759 140.986 306.045 141.756 306.136 142.636H303.656C303.52 142.023 303.207 141.494 302.719 141.051C302.236 140.608 301.588 140.386 300.776 140.386C300.065 140.386 299.443 140.574 298.909 140.949C298.381 141.318 297.969 141.847 297.673 142.534C297.378 143.216 297.23 144.023 297.23 144.955C297.23 145.909 297.375 146.733 297.665 147.426C297.955 148.119 298.364 148.656 298.892 149.037C299.426 149.418 300.054 149.608 300.776 149.608C301.259 149.608 301.696 149.52 302.088 149.344C302.486 149.162 302.818 148.903 303.085 148.568C303.358 148.233 303.548 147.83 303.656 147.358H306.136C306.045 148.205 305.77 148.96 305.31 149.625C304.849 150.29 304.233 150.812 303.46 151.193C302.693 151.574 301.793 151.764 300.759 151.764ZM317.154 146.071V138.409H319.711V151.5H317.205V149.233H317.069C316.768 149.932 316.285 150.514 315.62 150.98C314.961 151.44 314.14 151.67 313.157 151.67C312.316 151.67 311.572 151.486 310.924 151.116C310.282 150.741 309.776 150.188 309.407 149.455C309.043 148.722 308.862 147.815 308.862 146.736V138.409H311.41V146.429C311.41 147.321 311.657 148.031 312.151 148.56C312.646 149.088 313.288 149.352 314.077 149.352C314.555 149.352 315.029 149.233 315.501 148.994C315.978 148.756 316.373 148.395 316.685 147.912C317.004 147.429 317.16 146.815 317.154 146.071ZM323.135 151.5V138.409H325.598V140.489H325.734C325.973 139.784 326.393 139.23 326.996 138.827C327.604 138.418 328.291 138.213 329.058 138.213C329.217 138.213 329.405 138.219 329.621 138.23C329.842 138.241 330.016 138.256 330.141 138.273V140.71C330.038 140.682 329.857 140.651 329.595 140.616C329.334 140.577 329.072 140.557 328.811 140.557C328.209 140.557 327.672 140.685 327.2 140.94C326.734 141.19 326.365 141.54 326.092 141.989C325.82 142.432 325.683 142.937 325.683 143.506V151.5H323.135ZM332.346 151.5V138.409H334.894V151.5H332.346ZM333.633 136.389C333.19 136.389 332.809 136.241 332.491 135.946C332.178 135.645 332.022 135.287 332.022 134.872C332.022 134.452 332.178 134.094 332.491 133.798C332.809 133.497 333.19 133.347 333.633 133.347C334.076 133.347 334.454 133.497 334.766 133.798C335.085 134.094 335.244 134.452 335.244 134.872C335.244 135.287 335.085 135.645 334.766 135.946C334.454 136.241 334.076 136.389 333.633 136.389ZM344.433 138.409V140.455H337.283V138.409H344.433ZM339.2 135.273H341.749V147.656C341.749 148.151 341.822 148.523 341.97 148.773C342.118 149.017 342.308 149.185 342.541 149.276C342.78 149.361 343.038 149.403 343.317 149.403C343.521 149.403 343.7 149.389 343.854 149.361C344.007 149.332 344.126 149.31 344.212 149.293L344.672 151.398C344.524 151.455 344.314 151.511 344.041 151.568C343.768 151.631 343.428 151.665 343.018 151.67C342.348 151.682 341.723 151.562 341.143 151.312C340.564 151.062 340.095 150.676 339.737 150.153C339.379 149.631 339.2 148.974 339.2 148.185V135.273ZM348.863 156.409C348.482 156.409 348.136 156.378 347.823 156.315C347.511 156.259 347.278 156.196 347.124 156.128L347.738 154.04C348.204 154.165 348.619 154.219 348.982 154.202C349.346 154.185 349.667 154.048 349.945 153.793C350.229 153.537 350.479 153.119 350.695 152.54L351.011 151.67L346.221 138.409H348.948L352.263 148.568H352.4L355.715 138.409H358.451L353.056 153.247C352.806 153.929 352.488 154.506 352.102 154.977C351.715 155.455 351.255 155.813 350.721 156.051C350.187 156.29 349.567 156.409 348.863 156.409ZM382.564 142.773C382.564 144.636 382.223 146.239 381.541 147.58C380.859 148.915 379.925 149.943 378.737 150.665C377.555 151.381 376.212 151.739 374.706 151.739C373.195 151.739 371.845 151.381 370.658 150.665C369.476 149.943 368.544 148.912 367.862 147.571C367.18 146.23 366.839 144.631 366.839 142.773C366.839 140.909 367.18 139.31 367.862 137.974C368.544 136.634 369.476 135.605 370.658 134.889C371.845 134.168 373.195 133.807 374.706 133.807C376.212 133.807 377.555 134.168 378.737 134.889C379.925 135.605 380.859 136.634 381.541 137.974C382.223 139.31 382.564 140.909 382.564 142.773ZM379.956 142.773C379.956 141.352 379.726 140.156 379.266 139.185C378.811 138.207 378.186 137.469 377.391 136.969C376.601 136.463 375.706 136.21 374.706 136.21C373.7 136.21 372.803 136.463 372.013 136.969C371.223 137.469 370.598 138.207 370.138 139.185C369.683 140.156 369.456 141.352 369.456 142.773C369.456 144.193 369.683 145.392 370.138 146.369C370.598 147.341 371.223 148.08 372.013 148.585C372.803 149.085 373.7 149.335 374.706 149.335C375.706 149.335 376.601 149.085 377.391 148.585C378.186 148.08 378.811 147.341 379.266 146.369C379.726 145.392 379.956 144.193 379.956 142.773ZM391.873 138.409V140.455H384.475V138.409H391.873ZM386.504 151.5V136.892C386.504 136.074 386.683 135.395 387.04 134.855C387.398 134.31 387.873 133.903 388.464 133.636C389.055 133.364 389.697 133.227 390.39 133.227C390.901 133.227 391.339 133.27 391.702 133.355C392.066 133.435 392.336 133.509 392.512 133.577L391.915 135.639C391.796 135.605 391.643 135.565 391.455 135.52C391.268 135.469 391.04 135.443 390.773 135.443C390.154 135.443 389.711 135.597 389.444 135.903C389.183 136.21 389.052 136.653 389.052 137.233V151.5H386.504ZM400.732 138.409V140.455H393.335V138.409H400.732ZM395.363 151.5V136.892C395.363 136.074 395.542 135.395 395.9 134.855C396.258 134.31 396.732 133.903 397.323 133.636C397.914 133.364 398.556 133.227 399.249 133.227C399.761 133.227 400.198 133.27 400.562 133.355C400.925 133.435 401.195 133.509 401.371 133.577L400.775 135.639C400.656 135.605 400.502 135.565 400.315 135.52C400.127 135.469 399.9 135.443 399.633 135.443C399.013 135.443 398.57 135.597 398.303 135.903C398.042 136.21 397.911 136.653 397.911 137.233V151.5H395.363ZM403.362 151.5V138.409H405.91V151.5H403.362ZM404.648 136.389C404.205 136.389 403.825 136.241 403.506 135.946C403.194 135.645 403.038 135.287 403.038 134.872C403.038 134.452 403.194 134.094 403.506 133.798C403.825 133.497 404.205 133.347 404.648 133.347C405.092 133.347 405.469 133.497 405.782 133.798C406.1 134.094 406.259 134.452 406.259 134.872C406.259 135.287 406.1 135.645 405.782 135.946C405.469 136.241 405.092 136.389 404.648 136.389ZM414.852 151.764C413.585 151.764 412.494 151.477 411.58 150.903C410.67 150.324 409.972 149.526 409.483 148.509C408.994 147.491 408.75 146.327 408.75 145.014C408.75 143.685 409 142.511 409.5 141.494C410 140.472 410.705 139.673 411.614 139.099C412.523 138.526 413.594 138.239 414.827 138.239C415.821 138.239 416.707 138.423 417.486 138.793C418.264 139.156 418.892 139.668 419.369 140.327C419.852 140.986 420.139 141.756 420.23 142.636H417.75C417.614 142.023 417.301 141.494 416.812 141.051C416.33 140.608 415.682 140.386 414.869 140.386C414.159 140.386 413.537 140.574 413.003 140.949C412.474 141.318 412.063 141.847 411.767 142.534C411.472 143.216 411.324 144.023 411.324 144.955C411.324 145.909 411.469 146.733 411.759 147.426C412.048 148.119 412.457 148.656 412.986 149.037C413.52 149.418 414.148 149.608 414.869 149.608C415.352 149.608 415.79 149.52 416.182 149.344C416.58 149.162 416.912 148.903 417.179 148.568C417.452 148.233 417.642 147.83 417.75 147.358H420.23C420.139 148.205 419.864 148.96 419.403 149.625C418.943 150.29 418.327 150.812 417.554 151.193C416.787 151.574 415.886 151.764 414.852 151.764ZM428.597 151.764C427.308 151.764 426.197 151.489 425.265 150.938C424.339 150.381 423.623 149.599 423.117 148.594C422.617 147.582 422.367 146.398 422.367 145.04C422.367 143.699 422.617 142.517 423.117 141.494C423.623 140.472 424.327 139.673 425.231 139.099C426.14 138.526 427.202 138.239 428.418 138.239C429.157 138.239 429.873 138.361 430.566 138.605C431.259 138.849 431.881 139.233 432.433 139.756C432.984 140.278 433.418 140.957 433.737 141.793C434.055 142.622 434.214 143.631 434.214 144.818V145.722H423.808V143.812H431.717C431.717 143.142 431.58 142.548 431.308 142.031C431.035 141.509 430.651 141.097 430.157 140.795C429.668 140.494 429.094 140.344 428.435 140.344C427.719 140.344 427.094 140.52 426.56 140.872C426.032 141.219 425.623 141.673 425.333 142.236C425.049 142.793 424.907 143.398 424.907 144.051V145.543C424.907 146.418 425.06 147.162 425.367 147.776C425.68 148.389 426.114 148.858 426.671 149.182C427.228 149.5 427.879 149.659 428.623 149.659C429.106 149.659 429.546 149.591 429.944 149.455C430.342 149.312 430.685 149.102 430.975 148.824C431.265 148.545 431.487 148.202 431.64 147.793L434.052 148.227C433.859 148.937 433.512 149.56 433.012 150.094C432.518 150.622 431.896 151.034 431.146 151.33C430.401 151.619 429.552 151.764 428.597 151.764ZM445.072 149.335C444.606 149.335 444.205 149.17 443.87 148.841C443.535 148.506 443.367 148.102 443.367 147.631C443.367 147.165 443.535 146.767 443.87 146.438C444.205 146.102 444.606 145.935 445.072 145.935C445.538 145.935 445.938 146.102 446.273 146.438C446.609 146.767 446.776 147.165 446.776 147.631C446.776 147.943 446.697 148.23 446.538 148.491C446.384 148.747 446.18 148.952 445.924 149.105C445.668 149.259 445.384 149.335 445.072 149.335ZM445.072 140.591C444.606 140.591 444.205 140.426 443.87 140.097C443.535 139.761 443.367 139.358 443.367 138.886C443.367 138.42 443.535 138.023 443.87 137.693C444.205 137.358 444.606 137.19 445.072 137.19C445.538 137.19 445.938 137.358 446.273 137.693C446.609 138.023 446.776 138.42 446.776 138.886C446.776 139.199 446.697 139.486 446.538 139.747C446.384 140.003 446.18 140.207 445.924 140.361C445.668 140.514 445.384 140.591 445.072 140.591ZM467.97 134.045H470.612V145.526C470.612 146.747 470.325 147.83 469.751 148.773C469.178 149.71 468.371 150.449 467.331 150.989C466.291 151.523 465.072 151.79 463.675 151.79C462.283 151.79 461.067 151.523 460.027 150.989C458.987 150.449 458.18 149.71 457.607 148.773C457.033 147.83 456.746 146.747 456.746 145.526V134.045H459.379V145.312C459.379 146.102 459.553 146.804 459.899 147.418C460.251 148.031 460.749 148.514 461.391 148.866C462.033 149.213 462.794 149.386 463.675 149.386C464.561 149.386 465.325 149.213 465.967 148.866C466.615 148.514 467.109 148.031 467.45 147.418C467.797 146.804 467.97 146.102 467.97 145.312V134.045ZM476.785 143.727V151.5H474.237V138.409H476.683V140.54H476.844C477.146 139.847 477.617 139.29 478.259 138.869C478.907 138.449 479.722 138.239 480.705 138.239C481.597 138.239 482.379 138.426 483.049 138.801C483.719 139.17 484.239 139.722 484.609 140.455C484.978 141.187 485.163 142.094 485.163 143.173V151.5H482.614V143.48C482.614 142.531 482.367 141.79 481.873 141.256C481.379 140.716 480.7 140.446 479.836 140.446C479.245 140.446 478.719 140.574 478.259 140.83C477.805 141.085 477.444 141.46 477.177 141.955C476.915 142.443 476.785 143.034 476.785 143.727ZM488.58 151.5V138.409H491.129V151.5H488.58ZM489.867 136.389C489.424 136.389 489.043 136.241 488.725 135.946C488.413 135.645 488.256 135.287 488.256 134.872C488.256 134.452 488.413 134.094 488.725 133.798C489.043 133.497 489.424 133.347 489.867 133.347C490.31 133.347 490.688 133.497 491.001 133.798C491.319 134.094 491.478 134.452 491.478 134.872C491.478 135.287 491.319 135.645 491.001 135.946C490.688 136.241 490.31 136.389 489.867 136.389ZM505.756 138.409L501.009 151.5H498.281L493.526 138.409H496.261L499.577 148.483H499.713L503.02 138.409H505.756ZM513.347 151.764C512.058 151.764 510.947 151.489 510.015 150.938C509.089 150.381 508.373 149.599 507.867 148.594C507.367 147.582 507.117 146.398 507.117 145.04C507.117 143.699 507.367 142.517 507.867 141.494C508.373 140.472 509.077 139.673 509.981 139.099C510.89 138.526 511.952 138.239 513.168 138.239C513.907 138.239 514.623 138.361 515.316 138.605C516.009 138.849 516.631 139.233 517.183 139.756C517.734 140.278 518.168 140.957 518.487 141.793C518.805 142.622 518.964 143.631 518.964 144.818V145.722H508.558V143.812H516.467C516.467 143.142 516.33 142.548 516.058 142.031C515.785 141.509 515.401 141.097 514.907 140.795C514.418 140.494 513.844 140.344 513.185 140.344C512.469 140.344 511.844 140.52 511.31 140.872C510.782 141.219 510.373 141.673 510.083 142.236C509.799 142.793 509.657 143.398 509.657 144.051V145.543C509.657 146.418 509.81 147.162 510.117 147.776C510.43 148.389 510.864 148.858 511.421 149.182C511.978 149.5 512.629 149.659 513.373 149.659C513.856 149.659 514.296 149.591 514.694 149.455C515.092 149.312 515.435 149.102 515.725 148.824C516.015 148.545 516.237 148.202 516.39 147.793L518.802 148.227C518.609 148.937 518.262 149.56 517.762 150.094C517.268 150.622 516.646 151.034 515.896 151.33C515.151 151.619 514.302 151.764 513.347 151.764ZM521.791 151.5V138.409H524.254V140.489H524.391C524.629 139.784 525.05 139.23 525.652 138.827C526.26 138.418 526.947 138.213 527.714 138.213C527.874 138.213 528.061 138.219 528.277 138.23C528.499 138.241 528.672 138.256 528.797 138.273V140.71C528.695 140.682 528.513 140.651 528.251 140.616C527.99 140.577 527.729 140.557 527.467 140.557C526.865 140.557 526.328 140.685 525.857 140.94C525.391 141.19 525.021 141.54 524.749 141.989C524.476 142.432 524.339 142.937 524.339 143.506V151.5H521.791ZM540.812 141.605L538.502 142.014C538.406 141.719 538.252 141.437 538.042 141.17C537.837 140.903 537.559 140.685 537.207 140.514C536.854 140.344 536.414 140.259 535.886 140.259C535.164 140.259 534.562 140.42 534.079 140.744C533.596 141.062 533.354 141.474 533.354 141.98C533.354 142.418 533.516 142.77 533.84 143.037C534.164 143.304 534.687 143.523 535.408 143.693L537.488 144.17C538.692 144.449 539.59 144.878 540.181 145.457C540.772 146.037 541.067 146.79 541.067 147.716C541.067 148.5 540.84 149.199 540.386 149.812C539.937 150.42 539.309 150.898 538.502 151.244C537.701 151.591 536.772 151.764 535.715 151.764C534.249 151.764 533.053 151.452 532.127 150.827C531.201 150.196 530.633 149.301 530.423 148.142L532.886 147.767C533.039 148.409 533.354 148.895 533.832 149.224C534.309 149.548 534.931 149.71 535.698 149.71C536.533 149.71 537.201 149.537 537.701 149.19C538.201 148.838 538.451 148.409 538.451 147.903C538.451 147.494 538.298 147.151 537.991 146.872C537.69 146.594 537.227 146.384 536.602 146.241L534.386 145.756C533.164 145.477 532.261 145.034 531.675 144.426C531.096 143.818 530.806 143.048 530.806 142.116C530.806 141.344 531.022 140.668 531.454 140.088C531.886 139.509 532.482 139.057 533.244 138.733C534.005 138.403 534.877 138.239 535.86 138.239C537.275 138.239 538.388 138.545 539.201 139.159C540.013 139.767 540.55 140.582 540.812 141.605ZM543.869 151.5V138.409H546.418V151.5H543.869ZM545.156 136.389C544.713 136.389 544.332 136.241 544.014 135.946C543.702 135.645 543.545 135.287 543.545 134.872C543.545 134.452 543.702 134.094 544.014 133.798C544.332 133.497 544.713 133.347 545.156 133.347C545.599 133.347 545.977 133.497 546.29 133.798C546.608 134.094 546.767 134.452 546.767 134.872C546.767 135.287 546.608 135.645 546.29 135.946C545.977 136.241 545.599 136.389 545.156 136.389ZM555.957 138.409V140.455H548.806V138.409H555.957ZM550.724 135.273H553.272V147.656C553.272 148.151 553.346 148.523 553.494 148.773C553.641 149.017 553.832 149.185 554.065 149.276C554.303 149.361 554.562 149.403 554.84 149.403C555.045 149.403 555.224 149.389 555.377 149.361C555.531 149.332 555.65 149.31 555.735 149.293L556.195 151.398C556.048 151.455 555.837 151.511 555.565 151.568C555.292 151.631 554.951 151.665 554.542 151.67C553.871 151.682 553.246 151.562 552.667 151.312C552.087 151.062 551.619 150.676 551.261 150.153C550.903 149.631 550.724 148.974 550.724 148.185V135.273ZM560.386 156.409C560.006 156.409 559.659 156.378 559.347 156.315C559.034 156.259 558.801 156.196 558.648 156.128L559.261 154.04C559.727 154.165 560.142 154.219 560.506 154.202C560.869 154.185 561.19 154.048 561.469 153.793C561.753 153.537 562.003 153.119 562.219 152.54L562.534 151.67L557.744 138.409H560.472L563.787 148.568H563.923L567.239 138.409H569.974L564.58 153.247C564.33 153.929 564.011 154.506 563.625 154.977C563.239 155.455 562.778 155.813 562.244 156.051C561.71 156.29 561.091 156.409 560.386 156.409ZM578.925 134.045H582.121L587.678 147.614H587.883L593.44 134.045H596.636V151.5H594.13V138.869H593.968L588.82 151.474H586.741L581.593 138.861H581.431V151.5H578.925V134.045ZM604.07 151.79C603.24 151.79 602.49 151.636 601.82 151.33C601.149 151.017 600.618 150.565 600.226 149.974C599.839 149.384 599.646 148.659 599.646 147.801C599.646 147.062 599.788 146.455 600.072 145.977C600.357 145.5 600.74 145.122 601.223 144.844C601.706 144.565 602.246 144.355 602.842 144.213C603.439 144.071 604.047 143.963 604.666 143.889C605.45 143.798 606.087 143.724 606.575 143.668C607.064 143.605 607.419 143.506 607.641 143.369C607.862 143.233 607.973 143.011 607.973 142.705V142.645C607.973 141.901 607.763 141.324 607.342 140.915C606.928 140.506 606.308 140.301 605.484 140.301C604.626 140.301 603.95 140.491 603.456 140.872C602.967 141.247 602.629 141.665 602.442 142.125L600.047 141.58C600.331 140.784 600.746 140.142 601.291 139.653C601.842 139.159 602.476 138.801 603.192 138.58C603.908 138.352 604.661 138.239 605.45 138.239C605.973 138.239 606.527 138.301 607.112 138.426C607.703 138.545 608.254 138.767 608.766 139.091C609.283 139.415 609.706 139.878 610.036 140.48C610.365 141.077 610.53 141.852 610.53 142.807V151.5H608.041V149.71H607.939C607.774 150.04 607.527 150.364 607.197 150.682C606.868 151 606.445 151.264 605.928 151.474C605.411 151.685 604.791 151.79 604.07 151.79ZM604.624 149.744C605.328 149.744 605.93 149.605 606.43 149.327C606.936 149.048 607.32 148.685 607.581 148.236C607.848 147.781 607.982 147.295 607.982 146.778V145.091C607.891 145.182 607.714 145.267 607.453 145.347C607.197 145.42 606.905 145.486 606.575 145.543C606.246 145.594 605.925 145.642 605.612 145.688C605.3 145.727 605.038 145.761 604.828 145.79C604.334 145.852 603.882 145.957 603.473 146.105C603.07 146.253 602.746 146.466 602.501 146.744C602.263 147.017 602.143 147.381 602.143 147.835C602.143 148.466 602.376 148.943 602.842 149.267C603.308 149.585 603.902 149.744 604.624 149.744ZM613.924 151.5V138.409H616.472V151.5H613.924ZM615.211 136.389C614.768 136.389 614.387 136.241 614.069 135.946C613.756 135.645 613.6 135.287 613.6 134.872C613.6 134.452 613.756 134.094 614.069 133.798C614.387 133.497 614.768 133.347 615.211 133.347C615.654 133.347 616.032 133.497 616.344 133.798C616.663 134.094 616.822 134.452 616.822 134.872C616.822 135.287 616.663 135.645 616.344 135.946C616.032 136.241 615.654 136.389 615.211 136.389ZM622.449 143.727V151.5H619.901V138.409H622.347V140.54H622.509C622.81 139.847 623.281 139.29 623.923 138.869C624.571 138.449 625.386 138.239 626.369 138.239C627.261 138.239 628.043 138.426 628.713 138.801C629.384 139.17 629.903 139.722 630.273 140.455C630.642 141.187 630.827 142.094 630.827 143.173V151.5H628.278V143.48C628.278 142.531 628.031 141.79 627.537 141.256C627.043 140.716 626.364 140.446 625.5 140.446C624.909 140.446 624.384 140.574 623.923 140.83C623.469 141.085 623.108 141.46 622.841 141.955C622.58 142.443 622.449 143.034 622.449 143.727ZM652.613 139.56C652.448 139.043 652.227 138.58 651.948 138.17C651.675 137.756 651.349 137.403 650.968 137.114C650.587 136.818 650.153 136.594 649.664 136.44C649.181 136.287 648.65 136.21 648.07 136.21C647.087 136.21 646.201 136.463 645.411 136.969C644.621 137.474 643.996 138.216 643.536 139.193C643.082 140.165 642.854 141.355 642.854 142.764C642.854 144.179 643.085 145.375 643.545 146.352C644.005 147.33 644.636 148.071 645.437 148.577C646.238 149.082 647.15 149.335 648.173 149.335C649.121 149.335 649.948 149.142 650.653 148.756C651.363 148.369 651.911 147.824 652.298 147.119C652.69 146.409 652.886 145.574 652.886 144.614L653.567 144.741H648.573V142.568H655.434V144.554C655.434 146.02 655.121 147.293 654.496 148.372C653.877 149.446 653.019 150.276 651.923 150.861C650.832 151.446 649.582 151.739 648.173 151.739C646.593 151.739 645.207 151.375 644.013 150.648C642.826 149.92 641.9 148.889 641.235 147.554C640.57 146.213 640.238 144.622 640.238 142.781C640.238 141.389 640.431 140.139 640.817 139.031C641.204 137.923 641.746 136.983 642.445 136.21C643.15 135.432 643.977 134.838 644.925 134.429C645.88 134.014 646.923 133.807 648.053 133.807C648.996 133.807 649.874 133.946 650.687 134.224C651.505 134.503 652.232 134.898 652.869 135.409C653.511 135.92 654.042 136.528 654.462 137.233C654.883 137.932 655.167 138.707 655.315 139.56H652.613ZM662.382 151.79C661.553 151.79 660.803 151.636 660.132 151.33C659.462 151.017 658.93 150.565 658.538 149.974C658.152 149.384 657.959 148.659 657.959 147.801C657.959 147.062 658.101 146.455 658.385 145.977C658.669 145.5 659.053 145.122 659.536 144.844C660.018 144.565 660.558 144.355 661.155 144.213C661.751 144.071 662.359 143.963 662.979 143.889C663.763 143.798 664.399 143.724 664.888 143.668C665.376 143.605 665.732 143.506 665.953 143.369C666.175 143.233 666.286 143.011 666.286 142.705V142.645C666.286 141.901 666.075 141.324 665.655 140.915C665.24 140.506 664.621 140.301 663.797 140.301C662.939 140.301 662.263 140.491 661.768 140.872C661.28 141.247 660.942 141.665 660.754 142.125L658.359 141.58C658.643 140.784 659.058 140.142 659.604 139.653C660.155 139.159 660.788 138.801 661.504 138.58C662.22 138.352 662.973 138.239 663.763 138.239C664.286 138.239 664.839 138.301 665.425 138.426C666.016 138.545 666.567 138.767 667.078 139.091C667.595 139.415 668.018 139.878 668.348 140.48C668.678 141.077 668.842 141.852 668.842 142.807V151.5H666.354V149.71H666.251C666.087 150.04 665.839 150.364 665.51 150.682C665.18 151 664.757 151.264 664.24 151.474C663.723 151.685 663.104 151.79 662.382 151.79ZM662.936 149.744C663.641 149.744 664.243 149.605 664.743 149.327C665.249 149.048 665.632 148.685 665.893 148.236C666.161 147.781 666.294 147.295 666.294 146.778V145.091C666.203 145.182 666.027 145.267 665.766 145.347C665.51 145.42 665.217 145.486 664.888 145.543C664.558 145.594 664.237 145.642 663.925 145.688C663.612 145.727 663.351 145.761 663.141 145.79C662.646 145.852 662.195 145.957 661.786 146.105C661.382 146.253 661.058 146.466 660.814 146.744C660.575 147.017 660.456 147.381 660.456 147.835C660.456 148.466 660.689 148.943 661.155 149.267C661.621 149.585 662.214 149.744 662.936 149.744ZM678.347 138.409V140.455H671.197V138.409H678.347ZM673.114 135.273H675.663V147.656C675.663 148.151 675.737 148.523 675.884 148.773C676.032 149.017 676.222 149.185 676.455 149.276C676.694 149.361 676.952 149.403 677.231 149.403C677.435 149.403 677.614 149.389 677.768 149.361C677.921 149.332 678.04 149.31 678.126 149.293L678.586 151.398C678.438 151.455 678.228 151.511 677.955 151.568C677.683 151.631 677.342 151.665 676.933 151.67C676.262 151.682 675.637 151.562 675.058 151.312C674.478 151.062 674.009 150.676 673.651 150.153C673.293 149.631 673.114 148.974 673.114 148.185V135.273ZM686.668 151.764C685.378 151.764 684.267 151.489 683.335 150.938C682.409 150.381 681.693 149.599 681.188 148.594C680.688 147.582 680.438 146.398 680.438 145.04C680.438 143.699 680.688 142.517 681.188 141.494C681.693 140.472 682.398 139.673 683.301 139.099C684.21 138.526 685.273 138.239 686.489 138.239C687.227 138.239 687.943 138.361 688.636 138.605C689.33 138.849 689.952 139.233 690.503 139.756C691.054 140.278 691.489 140.957 691.807 141.793C692.125 142.622 692.284 143.631 692.284 144.818V145.722H681.878V143.812H689.787C689.787 143.142 689.651 142.548 689.378 142.031C689.105 141.509 688.722 141.097 688.227 140.795C687.739 140.494 687.165 140.344 686.506 140.344C685.79 140.344 685.165 140.52 684.631 140.872C684.102 141.219 683.693 141.673 683.403 142.236C683.119 142.793 682.977 143.398 682.977 144.051V145.543C682.977 146.418 683.131 147.162 683.438 147.776C683.75 148.389 684.185 148.858 684.741 149.182C685.298 149.5 685.949 149.659 686.693 149.659C687.176 149.659 687.616 149.591 688.014 149.455C688.412 149.312 688.756 149.102 689.045 148.824C689.335 148.545 689.557 148.202 689.71 147.793L692.122 148.227C691.929 148.937 691.582 149.56 691.082 150.094C690.588 150.622 689.966 151.034 689.216 151.33C688.472 151.619 687.622 151.764 686.668 151.764Z" fill="white"/>
</svg>
