<svg width="1646" height="1646" viewBox="0 0 1646 1646" fill="none" xmlns="http://www.w3.org/2000/svg">
<g filter="url(#filter0_d_451_618)">
<rect x="90" y="60" width="1466" height="1466" rx="733" fill="white"/>
<path d="M1067.33 765.358V631.743C1067.33 602.285 1043.37 578.319 1013.91 578.319H632.092C602.635 578.319 578.669 602.285 578.669 631.743V765.358C546.611 774.232 523 803.646 523 838.488V940.012C523 949.848 530.976 957.824 540.812 957.824H578.669V989.868C578.669 999.704 586.645 1007.68 596.481 1007.68C606.318 1007.68 614.294 999.704 614.294 989.868V957.824H1031.71V989.868C1031.71 999.704 1039.68 1007.68 1049.52 1007.68C1059.36 1007.68 1067.33 999.704 1067.33 989.868V957.824H1105.19C1115.02 957.824 1123 949.848 1123 940.012V838.488C1123 803.646 1099.39 774.232 1067.33 765.358ZM614.294 631.743C614.294 621.929 622.279 613.944 632.092 613.944H1013.91C1023.72 613.944 1031.71 621.929 1031.71 631.743V762.601H989.971V726.846C989.971 695.755 964.677 670.462 933.586 670.462H861.573C846.662 670.462 833.095 676.289 823.001 685.776C812.908 676.29 799.34 670.462 784.429 670.462H712.416C681.325 670.462 656.031 695.756 656.031 726.846V762.601H614.294V631.743ZM954.346 726.846V762.601H840.813V726.846C840.813 715.398 850.127 706.087 861.572 706.087H933.585C945.033 706.087 954.346 715.399 954.346 726.846ZM805.186 726.846V762.601H691.653V726.846C691.653 715.398 700.967 706.087 712.413 706.087H784.425C795.873 706.087 805.186 715.399 805.186 726.846ZM1087.38 922.199H558.625V838.488C558.625 816.288 576.686 798.226 598.887 798.226H1047.11C1069.31 798.226 1087.38 816.287 1087.38 838.488V922.199Z" fill="#13223B"/>
</g>
<defs>
<filter id="filter0_d_451_618" x="0" y="0" width="1646" height="1646" filterUnits="userSpaceOnUse" color-interpolation-filters="sRGB">
<feFlood flood-opacity="0" result="BackgroundImageFix"/>
<feColorMatrix in="SourceAlpha" type="matrix" values="0 0 0 0 0 0 0 0 0 0 0 0 0 0 0 0 0 0 127 0" result="hardAlpha"/>
<feOffset dy="30"/>
<feGaussianBlur stdDeviation="45"/>
<feColorMatrix type="matrix" values="0 0 0 0 0 0 0 0 0 0 0 0 0 0 0 0 0 0 0.4 0"/>
<feBlend mode="normal" in2="BackgroundImageFix" result="effect1_dropShadow_451_618"/>
<feBlend mode="normal" in="SourceGraphic" in2="effect1_dropShadow_451_618" result="shape"/>
</filter>
</defs>
</svg>
