<svg width="1646" height="1646" viewBox="0 0 1646 1646" fill="none" xmlns="http://www.w3.org/2000/svg">
<g filter="url(#filter0_d_449_426)">
<rect x="90" y="60" width="1466" height="1466" rx="733" fill="white"/>
<path d="M1115.33 839.062L1078.49 813.897L1088.72 805.722C1097.78 798.482 1097.47 784.548 1088.04 777.739L750.038 533.643C734.856 522.678 713.777 525.528 702.048 540.126L590.965 678.391C578.332 694.118 581.521 717.292 597.941 729.019L682.387 789.324L648.484 837.49C642.873 845.462 644.827 856.484 652.831 862.046L664.915 870.439C645.106 889.546 618.657 900.225 591.134 900.23H558.156V862.144C558.156 852.436 550.286 844.566 540.578 844.566C530.87 844.566 523 852.436 523 862.144V1041.44C523 1051.15 530.87 1059.02 540.578 1059.02C550.286 1059.02 558.156 1051.15 558.156 1041.44V1005.7H581.983C645.079 1005.7 706.766 979.163 750.582 929.937L768.163 942.148C776.188 947.721 787.221 945.677 792.719 937.606L824.564 890.856L896.971 942.564C900.084 944.787 903.837 945.934 907.661 945.831C911.484 945.727 915.17 944.38 918.159 941.992L944.393 921.032L1012.61 970.13C1020.19 975.584 1030.7 974.161 1036.56 966.902L1119.1 864.618C1125.54 856.641 1123.81 844.847 1115.33 839.062ZM581.983 970.541H558.156V935.385H591.133C610.448 935.381 629.559 931.421 647.286 923.75C665.013 916.079 680.981 904.859 694.206 890.781L721.459 909.709C685.704 948.078 634.821 970.541 581.983 970.541ZM773.648 903.153L687.413 843.261L710.997 809.754L795.947 870.42L773.648 903.153ZM906.591 906.234L618.372 700.409L729.455 562.144L1048.7 792.695L906.591 906.234ZM1019.64 931.877L972.914 898.243L1049.76 836.848L1079.78 857.355L1019.64 931.877Z" fill="#13223B"/>
<path d="M963.626 793.003C973.334 793.003 981.204 785.133 981.204 775.425C981.204 765.717 973.334 757.847 963.626 757.847C953.918 757.847 946.048 765.717 946.048 775.425C946.048 785.133 953.918 793.003 963.626 793.003Z" fill="#13223B"/>
</g>
<defs>
<filter id="filter0_d_449_426" x="0" y="0" width="1646" height="1646" filterUnits="userSpaceOnUse" color-interpolation-filters="sRGB">
<feFlood flood-opacity="0" result="BackgroundImageFix"/>
<feColorMatrix in="SourceAlpha" type="matrix" values="0 0 0 0 0 0 0 0 0 0 0 0 0 0 0 0 0 0 127 0" result="hardAlpha"/>
<feOffset dy="30"/>
<feGaussianBlur stdDeviation="45"/>
<feColorMatrix type="matrix" values="0 0 0 0 0 0 0 0 0 0 0 0 0 0 0 0 0 0 0.4 0"/>
<feBlend mode="normal" in2="BackgroundImageFix" result="effect1_dropShadow_449_426"/>
<feBlend mode="normal" in="SourceGraphic" in2="effect1_dropShadow_449_426" result="shape"/>
</filter>
</defs>
</svg>
