<svg width="1646" height="1646" viewBox="0 0 1646 1646" fill="none" xmlns="http://www.w3.org/2000/svg">
<g filter="url(#filter0_d_449_418)">
<rect x="90" y="60" width="1466" height="1466" rx="733" fill="white"/>
<path d="M1035.13 582.898C978.469 526.237 903.133 495.031 823 495.031C742.867 495.031 667.531 526.237 610.867 582.898C554.313 639.454 523.118 716.239 523 796.203C523 865.586 547.217 932.794 591.236 986.276C634.652 1039.03 695.201 1075.68 761.731 1089.48C766.476 1090.47 771.31 1090.97 776.157 1090.97C792.18 1090.97 807.796 1085.5 820.497 1075.16C836.969 1061.76 846.418 1041.9 846.422 1020.66L846.438 919.296C898.527 908.682 937.846 862.514 937.846 807.335V746.984C937.846 734.039 927.353 723.546 914.409 723.546H894.487V663.781C894.487 650.836 883.994 640.343 871.049 640.343C858.105 640.343 847.612 650.836 847.612 663.781V723.546H800.737V663.781C800.737 650.836 790.244 640.343 777.299 640.343C764.355 640.343 753.862 650.836 753.862 663.781V723.546H732.768C719.823 723.546 709.33 734.039 709.33 746.984V807.335C709.33 862.097 748.059 907.977 799.562 919.043L799.547 1020.65C799.546 1030.33 794.137 1036.18 790.913 1038.8C788.201 1041.02 785.028 1042.59 781.626 1043.42C778.225 1044.25 774.682 1044.31 771.256 1043.59C654.696 1019.4 570.058 915.413 569.85 796.203C569.85 796.203 569.876 796.497 569.876 796.203C569.876 656.629 683.427 541.906 823.001 541.906C962.575 541.906 1076.13 655.457 1076.13 795.031C1076.13 897.355 1015.5 989.162 921.67 1028.92C909.752 1033.97 904.183 1047.72 909.234 1059.64C914.284 1071.56 928.041 1077.13 939.958 1072.08C993.511 1049.39 1039.11 1011.68 1071.83 963.02C1105.3 913.234 1123 855.144 1123 795.031C1123 714.898 1091.8 639.56 1035.13 582.898ZM756.203 807.335V770.421H890.969V807.335C890.969 844.491 860.741 874.718 823.586 874.718C786.43 874.718 756.203 844.49 756.203 807.335Z" fill="#13223B"/>
</g>
<defs>
<filter id="filter0_d_449_418" x="0" y="0" width="1646" height="1646" filterUnits="userSpaceOnUse" color-interpolation-filters="sRGB">
<feFlood flood-opacity="0" result="BackgroundImageFix"/>
<feColorMatrix in="SourceAlpha" type="matrix" values="0 0 0 0 0 0 0 0 0 0 0 0 0 0 0 0 0 0 127 0" result="hardAlpha"/>
<feOffset dy="30"/>
<feGaussianBlur stdDeviation="45"/>
<feColorMatrix type="matrix" values="0 0 0 0 0 0 0 0 0 0 0 0 0 0 0 0 0 0 0.4 0"/>
<feBlend mode="normal" in2="BackgroundImageFix" result="effect1_dropShadow_449_418"/>
<feBlend mode="normal" in="SourceGraphic" in2="effect1_dropShadow_449_418" result="shape"/>
</filter>
</defs>
</svg>
