<svg width="1646" height="1646" viewBox="0 0 1646 1646" fill="none" xmlns="http://www.w3.org/2000/svg">
<g filter="url(#filter0_d_451_521)">
<rect x="90" y="60" width="1466" height="1466" rx="733" fill="white"/>
<g clip-path="url(#clip0_451_521)">
<path d="M1057.23 542.395L1057.24 542.395C1062.03 547.188 1062.03 554.959 1057.24 559.754L1057.24 559.755L945.523 671.464C944.383 672.605 943.03 673.51 941.54 674.127C940.05 674.744 938.454 675.061 936.842 675.059C936.841 675.059 936.84 675.059 936.84 675.059L936.841 673.559C934.71 673.559 932.627 672.928 930.855 671.744C929.083 670.56 927.701 668.877 926.886 666.908C926.07 664.939 925.857 662.773 926.273 660.683C926.689 658.593 927.716 656.673 929.223 655.166L1057.23 542.395ZM1057.23 542.395C1052.44 537.606 1044.67 537.601 1039.88 542.395L1039.88 542.395L928.163 654.105L1057.23 542.395ZM967.222 704.962C968.834 704.963 970.431 704.647 971.921 704.03C973.411 703.413 974.764 702.508 975.904 701.367L1087.61 589.654C1087.61 589.654 1087.61 589.654 1087.62 589.654C1088.75 588.514 1089.66 587.161 1090.28 585.672C1090.89 584.183 1091.21 582.587 1091.21 580.975C1091.21 579.363 1090.89 577.767 1090.28 576.278C1089.66 574.788 1088.75 573.435 1087.61 572.296L1087.61 572.295C1085.31 569.995 1082.19 568.702 1078.94 568.702C1075.68 568.702 1072.56 569.995 1070.26 572.295L1070.26 572.296L958.543 684.008L958.543 684.009C956.242 686.311 954.949 689.432 954.949 692.688C954.948 695.942 956.241 699.064 958.541 701.367C959.68 702.508 961.034 703.413 962.524 704.03C964.014 704.647 965.61 704.963 967.222 704.962ZM967.222 704.962C967.222 704.962 967.221 704.962 967.22 704.962L967.222 703.462L967.224 704.962C967.224 704.962 967.223 704.962 967.222 704.962Z" fill="#13223B" stroke="#13223B" stroke-width="3"/>
<path d="M840.995 813.703C841.014 813.682 841.028 813.66 841.047 813.639C841.066 813.618 841.087 813.6 841.106 813.58L840.995 813.703ZM840.995 813.703L637.336 1043.15L840.995 813.703ZM1120.9 607.025L1120.9 607.025C1116.11 602.236 1108.34 602.231 1103.55 607.025L964.871 745.703C948.235 762.337 922.796 766.702 901.574 756.567C899.171 755.419 896.46 755.084 893.849 755.612C891.239 756.14 888.871 757.503 887.104 759.495L840.018 812.545C840.013 812.551 840.006 812.557 839.999 812.564C839.98 812.584 839.954 812.61 839.926 812.642C839.915 812.655 839.904 812.667 839.895 812.678C839.88 812.696 839.866 812.712 839.856 812.725C839.853 812.73 839.849 812.735 839.846 812.739L636.215 1042.16L636.207 1042.17L636.2 1042.17L636.047 1042.35L636.038 1042.36C635.443 1043.07 634.82 1043.74 634.171 1044.4C621.309 1057.26 600.383 1057.25 587.528 1044.39L587.528 1044.39C581.296 1038.16 577.867 1029.88 577.867 1021.07C577.867 1012.26 581.296 1003.98 587.54 997.736C588.186 997.092 588.858 996.475 589.555 995.887C589.631 995.824 589.702 995.762 589.756 995.714L589.761 995.709L589.766 995.705L717.088 882.697C719.523 880.536 720.999 877.496 721.193 874.247C721.386 870.997 720.281 867.804 718.12 865.369C713.62 860.298 705.861 859.834 700.792 864.338L573.58 977.249C573.576 977.253 573.571 977.257 573.567 977.26C572.394 978.257 571.261 979.301 570.171 980.388L570.17 980.389C559.306 991.254 553.319 1005.71 553.319 1021.07C553.319 1036.43 559.305 1050.89 570.169 1061.75L571.167 1060.75L570.169 1061.75C581.388 1072.97 596.122 1078.58 610.853 1078.58C625.578 1078.58 640.316 1072.97 651.527 1061.76L651.528 1061.76C652.618 1060.67 653.665 1059.53 654.665 1058.35C654.668 1058.35 654.671 1058.35 654.675 1058.34L808.725 884.78L962.778 1058.34C962.781 1058.35 962.785 1058.35 962.789 1058.36C963.786 1059.53 964.829 1060.66 965.918 1061.75L965.918 1061.76C977.135 1072.97 991.87 1078.58 1006.6 1078.58C1021.33 1078.58 1036.07 1072.97 1047.28 1061.75L1046.22 1060.69L1047.28 1061.75C1069.71 1039.32 1069.71 1002.83 1047.29 980.399L1047.29 980.398C1046.2 979.308 1045.06 978.262 1043.89 977.262C1043.88 977.259 1043.88 977.255 1043.87 977.252L866.437 819.761L899.715 782.268C928.326 791.998 960.49 784.796 982.227 763.062L981.167 762.001L982.228 763.062L1120.9 624.385C1122.04 623.245 1122.95 621.892 1123.57 620.402C1124.18 618.913 1124.5 617.317 1124.5 615.705C1124.5 614.093 1124.18 612.497 1123.57 611.007C1122.95 609.518 1122.04 608.165 1120.9 607.025ZM839.874 812.707L839.87 812.711C839.871 812.71 839.873 812.708 839.874 812.707L839.874 812.707ZM1027.68 995.706L1027.69 995.714L1027.7 995.721L1027.88 995.874L1027.89 995.883C1028.59 996.477 1029.27 997.099 1029.92 997.746C1042.78 1010.61 1042.78 1031.53 1029.92 1044.39C1017.06 1057.25 996.136 1057.25 983.271 1044.39C982.57 1043.68 981.899 1042.95 981.262 1042.19L981.247 1042.17L981.233 1042.15L825.136 866.289L850.138 838.119L1027.68 995.706Z" fill="#13223B" stroke="#13223B" stroke-width="3"/>
<path d="M1024.89 511.015L1024.9 511.015C1026.04 512.155 1026.94 513.508 1027.56 514.997C1028.17 516.486 1028.49 518.083 1028.49 519.695C1028.49 521.306 1028.17 522.903 1027.56 524.392C1026.94 525.881 1026.04 527.234 1024.9 528.374L886.219 667.051L885.158 665.991L886.219 667.052C869.584 683.685 865.218 709.122 875.355 730.346L874.112 730.939L875.355 730.346C876.502 732.749 876.837 735.46 876.309 738.07C875.781 740.68 874.418 743.048 872.427 744.816L872.427 744.816L776.492 829.968C776.492 829.968 776.491 829.968 776.491 829.969L776.49 829.969L775.494 828.847C773.526 830.6 770.981 831.567 768.346 831.564L1024.89 511.015ZM1024.89 511.015C1022.59 508.714 1019.47 507.421 1016.22 507.421C1012.96 507.421 1009.84 508.714 1007.54 511.015L1007.54 511.015L868.861 649.693C847.122 671.431 839.922 703.591 849.652 732.209M1024.89 511.015L849.652 732.209M849.652 732.209L808.724 768.536L769.568 733.782C790.421 691.672 782.421 640.857 748.589 607.024L747.529 608.085L748.589 607.024C715.025 573.459 676.086 549.773 638.898 540.41L638.898 540.41C600.078 530.639 566.473 537.096 544.547 559.021C522.621 580.946 516.163 614.555 525.936 653.373L849.652 732.209ZM561.906 576.38L561.906 576.38C577.249 561.033 602.339 556.521 632.902 564.216C665.726 572.48 700.664 593.815 731.229 624.382L732.261 623.35L731.229 624.382C759.468 652.62 764.562 696.047 743.625 729.999L743.625 729.999C742.109 732.457 741.509 735.371 741.929 738.229C742.35 741.086 743.764 743.703 745.923 745.621L745.924 745.621L790.232 784.948L769.373 803.465L731.149 760.4C729.232 758.239 726.614 756.824 723.756 756.404C720.899 755.983 717.984 756.584 715.526 758.101C681.574 779.037 638.147 773.944 609.909 745.704L608.848 746.765L609.909 745.704C579.341 715.138 558.005 680.202 549.74 647.378C542.046 616.814 546.561 591.724 561.906 576.38Z" fill="#13223B" stroke="#13223B" stroke-width="3"/>
</g>
</g>
<defs>
<filter id="filter0_d_451_521" x="0" y="0" width="1646" height="1646" filterUnits="userSpaceOnUse" color-interpolation-filters="sRGB">
<feFlood flood-opacity="0" result="BackgroundImageFix"/>
<feColorMatrix in="SourceAlpha" type="matrix" values="0 0 0 0 0 0 0 0 0 0 0 0 0 0 0 0 0 0 127 0" result="hardAlpha"/>
<feOffset dy="30"/>
<feGaussianBlur stdDeviation="45"/>
<feColorMatrix type="matrix" values="0 0 0 0 0 0 0 0 0 0 0 0 0 0 0 0 0 0 0.4 0"/>
<feBlend mode="normal" in2="BackgroundImageFix" result="effect1_dropShadow_451_521"/>
<feBlend mode="normal" in="SourceGraphic" in2="effect1_dropShadow_451_521" result="shape"/>
</filter>
<clipPath id="clip0_451_521">
<rect width="600" height="600" fill="white" transform="translate(523 493)"/>
</clipPath>
</defs>
</svg>
