<svg width="1646" height="1646" viewBox="0 0 1646 1646" fill="none" xmlns="http://www.w3.org/2000/svg">
<g filter="url(#filter0_d_451_576)">
<rect x="90" y="60" width="1466" height="1466" rx="733" fill="white"/>
<g clip-path="url(#clip0_451_576)">
<path d="M1122.99 682.762C1122.99 667.927 1117.21 653.978 1106.72 643.491L1078.88 615.653L1093.06 601.472L1093.3 601.238C1114.95 579.585 1114.95 544.349 1093.3 522.689C1082.81 512.199 1068.86 506.421 1054.02 506.421C1039.19 506.421 1025.24 512.199 1014.75 522.687C1014.66 522.776 1014.57 522.866 1014.48 522.958L1000.33 537.106L972.496 509.267C962.006 498.777 948.06 493 933.224 493C918.387 493 904.439 498.779 893.95 509.269C888.613 514.598 884.424 520.964 881.643 527.975C873.012 522.681 863.07 519.844 852.689 519.844C837.853 519.844 823.904 525.621 813.409 536.116C791.761 557.77 791.761 593.004 813.411 614.662L868.093 669.341L699.323 838.111L644.64 783.429C634.152 772.941 620.204 767.164 605.371 767.164C590.535 767.164 576.586 772.941 566.089 783.434C547.621 801.905 544.918 830.25 557.958 851.627C550.946 854.423 544.58 858.623 539.249 863.968C517.598 885.62 517.597 920.854 539.25 942.511L567.086 970.347L552.671 984.761C542.181 995.252 536.402 1009.2 536.402 1024.04C536.402 1038.87 542.181 1052.82 552.67 1063.31C563.16 1073.8 577.109 1079.58 591.946 1079.58C606.648 1079.58 620.477 1073.9 630.934 1063.59C631.031 1063.5 631.127 1063.4 631.222 1063.31L645.634 1048.9L673.472 1076.73C683.959 1087.22 697.907 1093 712.744 1093H712.746C727.583 1093 741.533 1087.22 752.026 1076.73C757.361 1071.4 761.549 1065.04 764.331 1058.03C772.959 1063.32 782.898 1066.15 793.276 1066.16H793.279C808.112 1066.16 822.063 1060.38 832.556 1049.89C843.046 1039.4 848.822 1025.45 848.822 1010.61C848.822 995.775 843.045 981.828 832.555 971.339L777.872 916.656L946.647 747.887L1001.33 802.566C1011.82 813.055 1025.77 818.832 1040.6 818.833H1040.61C1055.44 818.833 1069.39 813.055 1079.87 802.567C1090.37 792.078 1096.15 778.129 1096.15 763.292C1096.15 752.921 1093.31 742.989 1088.03 734.363C1095.03 731.566 1101.39 727.371 1106.72 722.034C1117.21 711.544 1122.99 697.596 1122.99 682.762ZM606.6 1038.21L606.356 1038.45C602.508 1042.3 597.39 1044.42 591.946 1044.42C586.501 1044.42 581.381 1042.3 577.529 1038.45C573.68 1034.6 571.559 1029.48 571.559 1024.04C571.559 1018.59 573.68 1013.47 577.53 1009.62L591.942 995.208L620.774 1024.04L606.6 1038.21ZM1025.19 561.966L1039.6 547.565L1039.8 547.362C1043.6 543.641 1048.71 541.564 1054.03 541.578C1059.47 541.578 1064.59 543.699 1068.44 547.546C1076.33 555.442 1076.39 568.252 1068.6 576.213C1068.54 576.271 1068.48 576.331 1068.42 576.391L1054.02 590.793L1039.61 576.379L1025.19 561.966ZM918.811 534.126C922.659 530.276 927.778 528.156 933.224 528.156C938.67 528.156 943.787 530.276 947.638 534.127L1014.75 601.239L1041.59 628.083L1041.6 628.09L1081.86 668.351C1083.76 670.239 1085.26 672.485 1086.29 674.958C1087.31 677.432 1087.84 680.084 1087.83 682.762C1087.83 688.206 1085.71 693.327 1081.86 697.176C1079.97 699.075 1077.73 700.581 1075.25 701.606C1072.78 702.631 1070.12 703.155 1067.44 703.148C1064.77 703.155 1062.12 702.632 1059.65 701.611C1057.18 700.589 1054.94 699.089 1053.05 697.196L918.781 562.929C910.865 554.979 910.872 542.066 918.811 534.126ZM727.165 1051.87C725.275 1053.77 723.028 1055.27 720.552 1056.3C718.077 1057.33 715.423 1057.85 712.744 1057.84C710.066 1057.85 707.413 1057.33 704.939 1056.3C702.465 1055.28 700.219 1053.77 698.33 1051.87L658.071 1011.62L658.063 1011.61L649.521 1003.07L564.111 917.655C556.165 909.706 556.164 896.774 564.111 888.825C565.999 886.925 568.246 885.419 570.72 884.394C573.195 883.368 575.848 882.844 578.527 882.851C583.964 882.851 589.075 884.968 592.924 888.81L727.238 1023.12C735.104 1031.08 735.083 1043.95 727.165 1051.87ZM813.663 1010.61C813.663 1016.06 811.543 1021.18 807.695 1025.03C805.806 1026.93 803.559 1028.43 801.084 1029.46C798.609 1030.48 795.955 1031.01 793.276 1031H793.275C787.829 1031 782.708 1028.88 778.859 1025.03L752.173 998.343C752.121 998.291 752.074 998.236 752.023 998.185L617.797 863.965L617.794 863.962L590.952 837.12C583.004 829.173 583.004 816.242 590.95 808.294C592.839 806.394 595.087 804.888 597.562 803.863C600.038 802.837 602.692 802.313 605.372 802.32C610.815 802.32 615.933 804.44 619.781 808.288L686.883 875.387C686.886 875.392 686.89 875.397 686.895 875.402L737.227 925.731L807.697 996.201C809.595 998.089 811.1 1000.34 812.124 1002.81C813.148 1005.28 813.671 1007.94 813.663 1010.61ZM753.011 891.798L738.595 877.386L724.182 862.97L892.954 694.199L921.786 723.03L753.011 891.798ZM1055.01 777.706C1053.13 779.605 1050.88 781.11 1048.41 782.135C1045.93 783.161 1043.28 783.685 1040.6 783.678C1037.92 783.685 1035.27 783.161 1032.79 782.136C1030.32 781.111 1028.07 779.606 1026.18 777.707L959.119 710.644L959.077 710.597L905.384 656.909L905.359 656.886L838.274 589.804C830.327 581.854 830.327 568.919 838.27 560.971C840.16 559.071 842.407 557.565 844.882 556.54C847.357 555.515 850.011 554.991 852.69 554.998C858.135 554.998 863.256 557.119 867.107 560.97L893.873 587.736C893.898 587.761 893.922 587.789 893.947 587.814L1028.17 722.036C1028.19 722.048 1028.2 722.06 1028.21 722.071L1055.02 748.877C1056.92 750.765 1058.42 753.011 1059.45 755.486C1060.47 757.96 1061 760.613 1060.99 763.292C1061 765.97 1060.47 768.623 1059.45 771.098C1058.42 773.572 1056.91 775.818 1055.01 777.706Z" fill="#13223B"/>
</g>
</g>
<defs>
<filter id="filter0_d_451_576" x="0" y="0" width="1646" height="1646" filterUnits="userSpaceOnUse" color-interpolation-filters="sRGB">
<feFlood flood-opacity="0" result="BackgroundImageFix"/>
<feColorMatrix in="SourceAlpha" type="matrix" values="0 0 0 0 0 0 0 0 0 0 0 0 0 0 0 0 0 0 127 0" result="hardAlpha"/>
<feOffset dy="30"/>
<feGaussianBlur stdDeviation="45"/>
<feColorMatrix type="matrix" values="0 0 0 0 0 0 0 0 0 0 0 0 0 0 0 0 0 0 0.4 0"/>
<feBlend mode="normal" in2="BackgroundImageFix" result="effect1_dropShadow_451_576"/>
<feBlend mode="normal" in="SourceGraphic" in2="effect1_dropShadow_451_576" result="shape"/>
</filter>
<clipPath id="clip0_451_576">
<rect width="600" height="600" fill="white" transform="translate(523 493)"/>
</clipPath>
</defs>
</svg>
