<svg width="1646" height="1646" viewBox="0 0 1646 1646" fill="none" xmlns="http://www.w3.org/2000/svg">
<g filter="url(#filter0_d_451_530)">
<rect x="90" y="60" width="1466" height="1466" rx="733" fill="white"/>
<g clip-path="url(#clip0_451_530)">
<path d="M859.433 704.296V704.296H859.42H786.703C775.44 704.296 766.308 713.428 766.308 724.691V773.062H718.068C706.808 772.99 697.618 782.057 697.543 793.319H697.543V793.332V866.049C697.543 877.313 706.675 886.445 717.938 886.445H766.308V934.685C766.237 945.945 775.305 955.135 786.567 955.21H786.58H859.173C870.436 955.21 879.568 946.078 879.568 934.815V886.445H927.932C939.192 886.516 948.381 877.448 948.457 866.186V866.173V793.58C948.457 782.317 939.327 773.185 928.062 773.185H879.691V724.821C879.763 713.561 870.694 704.372 859.433 704.296ZM919.765 857.753H865.345C861.541 857.753 857.892 859.265 855.202 861.955C852.511 864.645 851 868.294 851 872.099V926.519H795V872.099C795 868.294 793.488 864.645 790.798 861.955C788.108 859.265 784.459 857.753 780.654 857.753H726.234V801.877H780.654C784.459 801.877 788.108 800.365 790.798 797.675C793.488 794.985 795 791.336 795 787.531V732.988H850.876V787.407C850.876 791.212 852.388 794.861 855.078 797.551C857.768 800.242 861.417 801.753 865.222 801.753H919.765V857.753Z" fill="#13223B" stroke="#13223B" stroke-width="4"/>
<path d="M1037.81 611.951H938.086V570.526C938.744 549.606 922.327 532.104 901.404 531.428C900.355 531.395 899.306 531.404 898.258 531.457H747.743C726.848 530.397 709.037 546.46 707.946 567.358C707.89 568.413 707.88 569.47 707.914 570.526V611.704H608.185C588.213 611.704 566.431 617.383 549.602 631.185C532.707 645.041 521 666.928 521 698.889V967.407C521 999.369 532.707 1021.25 549.602 1035.11C566.431 1048.91 588.213 1054.59 608.185 1054.59H1037.81C1057.79 1054.59 1079.57 1048.91 1096.4 1035.11C1113.29 1021.25 1125 999.369 1125 967.407V699.136C1125 667.176 1113.32 645.29 1096.44 631.433C1079.63 617.629 1057.85 611.951 1037.81 611.951ZM736.605 570.494C736.605 568.665 736.638 565.881 737.987 563.548C739.212 561.43 741.774 559.284 747.815 559.284H898.309C904.361 559.284 906.919 561.408 908.138 563.505C909.484 565.82 909.519 568.598 909.519 570.494V611.704H736.605V570.494ZM1096.31 967.407C1096.31 994.082 1086.04 1008.54 1073.83 1016.44C1061.46 1024.43 1046.8 1025.9 1037.81 1025.9H608.185C599.264 1025.9 584.598 1024.43 572.218 1016.44C559.987 1008.54 549.691 994.079 549.691 967.407V699.136C549.691 672.462 559.958 658.003 572.172 650.105C584.536 642.11 599.201 640.642 608.185 640.642H1037.81C1046.74 640.642 1061.4 642.11 1073.78 650.106C1086.01 658.005 1096.31 672.464 1096.31 699.136V967.407Z" fill="#13223B" stroke="#13223B" stroke-width="4"/>
</g>
</g>
<defs>
<filter id="filter0_d_451_530" x="0" y="0" width="1646" height="1646" filterUnits="userSpaceOnUse" color-interpolation-filters="sRGB">
<feFlood flood-opacity="0" result="BackgroundImageFix"/>
<feColorMatrix in="SourceAlpha" type="matrix" values="0 0 0 0 0 0 0 0 0 0 0 0 0 0 0 0 0 0 127 0" result="hardAlpha"/>
<feOffset dy="30"/>
<feGaussianBlur stdDeviation="45"/>
<feColorMatrix type="matrix" values="0 0 0 0 0 0 0 0 0 0 0 0 0 0 0 0 0 0 0.4 0"/>
<feBlend mode="normal" in2="BackgroundImageFix" result="effect1_dropShadow_451_530"/>
<feBlend mode="normal" in="SourceGraphic" in2="effect1_dropShadow_451_530" result="shape"/>
</filter>
<clipPath id="clip0_451_530">
<rect width="600" height="600" fill="white" transform="translate(523 493)"/>
</clipPath>
</defs>
</svg>
