<svg width="1646" height="1646" viewBox="0 0 1646 1646" fill="none" xmlns="http://www.w3.org/2000/svg">
<g filter="url(#filter0_d_451_631)">
<rect x="90" y="60" width="1466" height="1466" rx="733" fill="white"/>
<path d="M1045 521H601C580.095 521 563 538.095 563 559V1027C563 1047.9 580.095 1065 601 1065H1045C1065.9 1065 1083 1047.9 1083 1027V559C1083 538.095 1065.9 521 1045 521ZM839 1037H711V669H839V1037ZM867 1037V669H995V1037H867ZM1055 1027C1055 1032.5 1050.5 1037 1045 1037H1023V655C1023 647.295 1016.7 641 1009 641H697C689.295 641 683 647.295 683 655V1037H601C595.505 1037 591 1032.5 591 1027V559C591 553.505 595.505 549 601 549H1045C1050.5 549 1055 553.505 1055 559V1027ZM651 865V841C651 833.295 644.705 827 637 827C629.295 827 623 833.295 623 841V865C623 872.705 629.295 879 637 879C644.705 879 651 872.705 651 865ZM697 609C704.705 609 711 602.705 711 595C711 587.295 704.705 581 697 581C689.295 581 683 587.295 683 595C683 602.705 689.295 609 697 609ZM757 609C764.705 609 771 602.705 771 595C771 587.295 764.705 581 757 581C749.295 581 743 587.295 743 595C743 602.705 749.295 609 757 609ZM817 609C824.705 609 831 602.705 831 595C831 587.295 824.705 581 817 581C809.295 581 803 587.295 803 595C803 602.705 809.295 609 817 609ZM877 609C884.705 609 891 602.705 891 595C891 587.295 884.705 581 877 581C869.295 581 863 587.295 863 595C863 602.705 869.295 609 877 609ZM937 609C944.705 609 951 602.705 951 595C951 587.295 944.705 581 937 581C929.295 581 923 587.295 923 595C923 602.705 929.295 609 937 609Z" fill="#13223B" stroke="#13223B" stroke-width="4"/>
</g>
<defs>
<filter id="filter0_d_451_631" x="0" y="0" width="1646" height="1646" filterUnits="userSpaceOnUse" color-interpolation-filters="sRGB">
<feFlood flood-opacity="0" result="BackgroundImageFix"/>
<feColorMatrix in="SourceAlpha" type="matrix" values="0 0 0 0 0 0 0 0 0 0 0 0 0 0 0 0 0 0 127 0" result="hardAlpha"/>
<feOffset dy="30"/>
<feGaussianBlur stdDeviation="45"/>
<feColorMatrix type="matrix" values="0 0 0 0 0 0 0 0 0 0 0 0 0 0 0 0 0 0 0.4 0"/>
<feBlend mode="normal" in2="BackgroundImageFix" result="effect1_dropShadow_451_631"/>
<feBlend mode="normal" in="SourceGraphic" in2="effect1_dropShadow_451_631" result="shape"/>
</filter>
</defs>
</svg>
