<svg width="1646" height="1646" viewBox="0 0 1646 1646" fill="none" xmlns="http://www.w3.org/2000/svg">
<g filter="url(#filter0_d_449_422)">
<rect x="90" y="60" width="1466" height="1466" rx="733" fill="white"/>
<g clip-path="url(#clip0_449_422)">
<mask id="path-2-outside-1_449_422" maskUnits="userSpaceOnUse" x="521" y="491" width="604" height="604" fill="black">
<rect fill="white" x="521" y="491" width="604" height="604"/>
<path d="M1113 773H1073V763H1093C1098.53 763 1103 758.527 1103 753V723C1103 717.473 1098.53 713 1093 713H1073V703C1073 697.473 1068.53 693 1063 693H1003C997.473 693 993 697.473 993 703V773H957.771L972.286 736.711C972.983 734.963 973.173 733.055 972.834 731.204L970.754 719.749C962.386 673.684 930.221 636.406 886.945 620.87C896.978 607.502 903 590.961 903 573C903 528.889 867.111 493 823 493C778.889 493 743 528.889 743 573C743 590.961 749.022 607.502 759.055 620.87C715.779 636.405 683.614 673.683 675.255 719.739L673.165 731.204C672.826 733.055 673.016 734.963 673.712 736.711L688.229 773H663V711.158C674.615 707.016 683 696.02 683 683C683 666.457 669.543 653 653 653H553C547.473 653 543 657.473 543 663V694.842C531.385 698.984 523 709.98 523 723C523 730.711 526.005 737.68 530.803 743C526.005 748.32 523 755.289 523 763C523 767.624 524.139 771.954 526.015 775.869C525.061 776.795 524.303 777.904 523.785 779.129C523.267 780.354 523 781.67 523 783V823C523 828.527 527.473 833 533 833H553V1083C553 1088.53 557.473 1093 563 1093H603C608.527 1093 613 1088.53 613 1083V833H703.256C696.91 841.382 693 851.7 693 863V893H673C667.473 893 663 897.473 663 903V1093H683V913H716.161L729.77 1050.78C725.351 1057.35 722.994 1065.08 723 1073V1083C723 1088.53 727.473 1093 733 1093H793C798.527 1093 803 1088.53 803 1083V1073C803 1064.78 800.497 1057.14 796.229 1050.78L809.826 913H836.27L851.361 1048.81C846.195 1055.54 843 1063.87 843 1073V1083C843 1088.53 847.473 1093 853 1093H913C918.527 1093 923 1088.53 923 1083V1073C923 1063.87 919.806 1055.54 914.639 1048.81L929.709 913H963V1093H983V903C983 897.473 978.527 893 973 893H953V863C953 851.7 949.09 841.382 942.744 833H1033V1083C1033 1088.53 1037.47 1093 1043 1093H1083C1088.53 1093 1093 1088.53 1093 1083V833H1113C1118.53 833 1123 828.527 1123 823V783C1123 777.473 1118.53 773 1113 773ZM1073 733H1083V743H1073V733ZM1013 713H1053V773H1013V713ZM823 513C856.086 513 883 539.914 883 573C883 606.086 856.086 633 823 633C789.914 633 763 606.086 763 573C763 539.914 789.914 513 823 513ZM694.934 723.322C702.58 681.17 733.795 647.726 775 636.848C788.39 646.939 804.98 653 823 653C841.02 653 857.61 646.939 871 636.848C912.205 647.726 943.421 681.171 951.076 723.333L952.649 731.965L936.229 773H913V683C913 677.473 908.527 673 903 673H743C737.473 673 733 677.473 733 683V773H709.771L693.351 731.955L694.934 723.322ZM893 693V773H753V693H893ZM563 673H653C658.518 673 663 677.482 663 683C663 688.518 658.518 693 653 693H563V673ZM553 713H643V733H553C547.482 733 543 728.518 543 723C543 717.482 547.482 713 553 713ZM553 753H643V773H553C547.482 773 543 768.518 543 763C543 757.482 547.482 753 553 753ZM593 1073H573V833H593V1073ZM743 1073C743 1061.98 751.975 1053 763 1053C774.025 1053 783 1061.98 783 1073H743ZM790.833 901.955L777.606 1035.85C773.07 1034.06 768.166 1033 763 1033C757.834 1033 752.929 1034.06 748.392 1035.85L735.197 902.385C734.777 894.67 737.464 887.326 742.776 881.711C753.401 870.481 772.6 870.481 783.225 881.711C788.537 887.326 791.223 894.67 790.833 901.955ZM863 1073C863 1061.98 871.975 1053 883 1053C894.025 1053 903 1061.98 903 1073H863ZM910.841 901.838L896.005 1035.35C891.906 1033.93 887.577 1033 883 1033C878.421 1033 874.092 1033.93 869.992 1035.36L855.197 902.385C854.777 894.67 857.464 887.326 862.776 881.711C873.401 870.481 892.6 870.481 903.225 881.711C908.537 887.326 911.223 894.67 910.841 901.838ZM933 893H930.149C928.63 883.595 924.307 874.869 917.746 867.961C908.615 858.312 896.281 853 883 853C869.719 853 857.385 858.312 848.254 867.961C841.63 874.96 837.46 883.551 835.921 893H810.148C808.628 883.595 804.306 874.869 797.745 867.961C788.615 858.312 776.281 853 763 853C749.719 853 737.385 858.312 728.254 867.961C721.619 874.972 717.442 883.577 715.906 893H713V863C713 846.457 726.457 833 743 833H903C919.543 833 933 846.457 933 863V893ZM1073 1073H1053V833H1073V1073ZM1103 813H543V793H1103V813Z"/>
</mask>
<path d="M1113 773H1073V763H1093C1098.53 763 1103 758.527 1103 753V723C1103 717.473 1098.53 713 1093 713H1073V703C1073 697.473 1068.53 693 1063 693H1003C997.473 693 993 697.473 993 703V773H957.771L972.286 736.711C972.983 734.963 973.173 733.055 972.834 731.204L970.754 719.749C962.386 673.684 930.221 636.406 886.945 620.87C896.978 607.502 903 590.961 903 573C903 528.889 867.111 493 823 493C778.889 493 743 528.889 743 573C743 590.961 749.022 607.502 759.055 620.87C715.779 636.405 683.614 673.683 675.255 719.739L673.165 731.204C672.826 733.055 673.016 734.963 673.712 736.711L688.229 773H663V711.158C674.615 707.016 683 696.02 683 683C683 666.457 669.543 653 653 653H553C547.473 653 543 657.473 543 663V694.842C531.385 698.984 523 709.98 523 723C523 730.711 526.005 737.68 530.803 743C526.005 748.32 523 755.289 523 763C523 767.624 524.139 771.954 526.015 775.869C525.061 776.795 524.303 777.904 523.785 779.129C523.267 780.354 523 781.67 523 783V823C523 828.527 527.473 833 533 833H553V1083C553 1088.53 557.473 1093 563 1093H603C608.527 1093 613 1088.53 613 1083V833H703.256C696.91 841.382 693 851.7 693 863V893H673C667.473 893 663 897.473 663 903V1093H683V913H716.161L729.77 1050.78C725.351 1057.35 722.994 1065.08 723 1073V1083C723 1088.53 727.473 1093 733 1093H793C798.527 1093 803 1088.53 803 1083V1073C803 1064.78 800.497 1057.14 796.229 1050.78L809.826 913H836.27L851.361 1048.81C846.195 1055.54 843 1063.87 843 1073V1083C843 1088.53 847.473 1093 853 1093H913C918.527 1093 923 1088.53 923 1083V1073C923 1063.87 919.806 1055.54 914.639 1048.81L929.709 913H963V1093H983V903C983 897.473 978.527 893 973 893H953V863C953 851.7 949.09 841.382 942.744 833H1033V1083C1033 1088.53 1037.47 1093 1043 1093H1083C1088.53 1093 1093 1088.53 1093 1083V833H1113C1118.53 833 1123 828.527 1123 823V783C1123 777.473 1118.53 773 1113 773ZM1073 733H1083V743H1073V733ZM1013 713H1053V773H1013V713ZM823 513C856.086 513 883 539.914 883 573C883 606.086 856.086 633 823 633C789.914 633 763 606.086 763 573C763 539.914 789.914 513 823 513ZM694.934 723.322C702.58 681.17 733.795 647.726 775 636.848C788.39 646.939 804.98 653 823 653C841.02 653 857.61 646.939 871 636.848C912.205 647.726 943.421 681.171 951.076 723.333L952.649 731.965L936.229 773H913V683C913 677.473 908.527 673 903 673H743C737.473 673 733 677.473 733 683V773H709.771L693.351 731.955L694.934 723.322ZM893 693V773H753V693H893ZM563 673H653C658.518 673 663 677.482 663 683C663 688.518 658.518 693 653 693H563V673ZM553 713H643V733H553C547.482 733 543 728.518 543 723C543 717.482 547.482 713 553 713ZM553 753H643V773H553C547.482 773 543 768.518 543 763C543 757.482 547.482 753 553 753ZM593 1073H573V833H593V1073ZM743 1073C743 1061.98 751.975 1053 763 1053C774.025 1053 783 1061.98 783 1073H743ZM790.833 901.955L777.606 1035.85C773.07 1034.06 768.166 1033 763 1033C757.834 1033 752.929 1034.06 748.392 1035.85L735.197 902.385C734.777 894.67 737.464 887.326 742.776 881.711C753.401 870.481 772.6 870.481 783.225 881.711C788.537 887.326 791.223 894.67 790.833 901.955ZM863 1073C863 1061.98 871.975 1053 883 1053C894.025 1053 903 1061.98 903 1073H863ZM910.841 901.838L896.005 1035.35C891.906 1033.93 887.577 1033 883 1033C878.421 1033 874.092 1033.93 869.992 1035.36L855.197 902.385C854.777 894.67 857.464 887.326 862.776 881.711C873.401 870.481 892.6 870.481 903.225 881.711C908.537 887.326 911.223 894.67 910.841 901.838ZM933 893H930.149C928.63 883.595 924.307 874.869 917.746 867.961C908.615 858.312 896.281 853 883 853C869.719 853 857.385 858.312 848.254 867.961C841.63 874.96 837.46 883.551 835.921 893H810.148C808.628 883.595 804.306 874.869 797.745 867.961C788.615 858.312 776.281 853 763 853C749.719 853 737.385 858.312 728.254 867.961C721.619 874.972 717.442 883.577 715.906 893H713V863C713 846.457 726.457 833 743 833H903C919.543 833 933 846.457 933 863V893ZM1073 1073H1053V833H1073V1073ZM1103 813H543V793H1103V813Z" fill="#13223B"/>
<path d="M1113 773H1073V763H1093C1098.53 763 1103 758.527 1103 753V723C1103 717.473 1098.53 713 1093 713H1073V703C1073 697.473 1068.53 693 1063 693H1003C997.473 693 993 697.473 993 703V773H957.771L972.286 736.711C972.983 734.963 973.173 733.055 972.834 731.204L970.754 719.749C962.386 673.684 930.221 636.406 886.945 620.87C896.978 607.502 903 590.961 903 573C903 528.889 867.111 493 823 493C778.889 493 743 528.889 743 573C743 590.961 749.022 607.502 759.055 620.87C715.779 636.405 683.614 673.683 675.255 719.739L673.165 731.204C672.826 733.055 673.016 734.963 673.712 736.711L688.229 773H663V711.158C674.615 707.016 683 696.02 683 683C683 666.457 669.543 653 653 653H553C547.473 653 543 657.473 543 663V694.842C531.385 698.984 523 709.98 523 723C523 730.711 526.005 737.68 530.803 743C526.005 748.32 523 755.289 523 763C523 767.624 524.139 771.954 526.015 775.869C525.061 776.795 524.303 777.904 523.785 779.129C523.267 780.354 523 781.67 523 783V823C523 828.527 527.473 833 533 833H553V1083C553 1088.53 557.473 1093 563 1093H603C608.527 1093 613 1088.53 613 1083V833H703.256C696.91 841.382 693 851.7 693 863V893H673C667.473 893 663 897.473 663 903V1093H683V913H716.161L729.77 1050.78C725.351 1057.35 722.994 1065.08 723 1073V1083C723 1088.53 727.473 1093 733 1093H793C798.527 1093 803 1088.53 803 1083V1073C803 1064.78 800.497 1057.14 796.229 1050.78L809.826 913H836.27L851.361 1048.81C846.195 1055.54 843 1063.87 843 1073V1083C843 1088.53 847.473 1093 853 1093H913C918.527 1093 923 1088.53 923 1083V1073C923 1063.87 919.806 1055.54 914.639 1048.81L929.709 913H963V1093H983V903C983 897.473 978.527 893 973 893H953V863C953 851.7 949.09 841.382 942.744 833H1033V1083C1033 1088.53 1037.47 1093 1043 1093H1083C1088.53 1093 1093 1088.53 1093 1083V833H1113C1118.53 833 1123 828.527 1123 823V783C1123 777.473 1118.53 773 1113 773ZM1073 733H1083V743H1073V733ZM1013 713H1053V773H1013V713ZM823 513C856.086 513 883 539.914 883 573C883 606.086 856.086 633 823 633C789.914 633 763 606.086 763 573C763 539.914 789.914 513 823 513ZM694.934 723.322C702.58 681.17 733.795 647.726 775 636.848C788.39 646.939 804.98 653 823 653C841.02 653 857.61 646.939 871 636.848C912.205 647.726 943.421 681.171 951.076 723.333L952.649 731.965L936.229 773H913V683C913 677.473 908.527 673 903 673H743C737.473 673 733 677.473 733 683V773H709.771L693.351 731.955L694.934 723.322ZM893 693V773H753V693H893ZM563 673H653C658.518 673 663 677.482 663 683C663 688.518 658.518 693 653 693H563V673ZM553 713H643V733H553C547.482 733 543 728.518 543 723C543 717.482 547.482 713 553 713ZM553 753H643V773H553C547.482 773 543 768.518 543 763C543 757.482 547.482 753 553 753ZM593 1073H573V833H593V1073ZM743 1073C743 1061.98 751.975 1053 763 1053C774.025 1053 783 1061.98 783 1073H743ZM790.833 901.955L777.606 1035.85C773.07 1034.06 768.166 1033 763 1033C757.834 1033 752.929 1034.06 748.392 1035.85L735.197 902.385C734.777 894.67 737.464 887.326 742.776 881.711C753.401 870.481 772.6 870.481 783.225 881.711C788.537 887.326 791.223 894.67 790.833 901.955ZM863 1073C863 1061.98 871.975 1053 883 1053C894.025 1053 903 1061.98 903 1073H863ZM910.841 901.838L896.005 1035.35C891.906 1033.93 887.577 1033 883 1033C878.421 1033 874.092 1033.93 869.992 1035.36L855.197 902.385C854.777 894.67 857.464 887.326 862.776 881.711C873.401 870.481 892.6 870.481 903.225 881.711C908.537 887.326 911.223 894.67 910.841 901.838ZM933 893H930.149C928.63 883.595 924.307 874.869 917.746 867.961C908.615 858.312 896.281 853 883 853C869.719 853 857.385 858.312 848.254 867.961C841.63 874.96 837.46 883.551 835.921 893H810.148C808.628 883.595 804.306 874.869 797.745 867.961C788.615 858.312 776.281 853 763 853C749.719 853 737.385 858.312 728.254 867.961C721.619 874.972 717.442 883.577 715.906 893H713V863C713 846.457 726.457 833 743 833H903C919.543 833 933 846.457 933 863V893ZM1073 1073H1053V833H1073V1073ZM1103 813H543V793H1103V813Z" stroke="#13223B" stroke-width="4" mask="url(#path-2-outside-1_449_422)"/>
<path d="M793 723H853V743H793V723ZM1033 643H1053V673H1033V643ZM1003 623H1023V663H1003V623Z" fill="#13223B"/>
</g>
</g>
<defs>
<filter id="filter0_d_449_422" x="0" y="0" width="1646" height="1646" filterUnits="userSpaceOnUse" color-interpolation-filters="sRGB">
<feFlood flood-opacity="0" result="BackgroundImageFix"/>
<feColorMatrix in="SourceAlpha" type="matrix" values="0 0 0 0 0 0 0 0 0 0 0 0 0 0 0 0 0 0 127 0" result="hardAlpha"/>
<feOffset dy="30"/>
<feGaussianBlur stdDeviation="45"/>
<feColorMatrix type="matrix" values="0 0 0 0 0 0 0 0 0 0 0 0 0 0 0 0 0 0 0.4 0"/>
<feBlend mode="normal" in2="BackgroundImageFix" result="effect1_dropShadow_449_422"/>
<feBlend mode="normal" in="SourceGraphic" in2="effect1_dropShadow_449_422" result="shape"/>
</filter>
<clipPath id="clip0_449_422">
<rect width="600" height="600" fill="white" transform="translate(523 493)"/>
</clipPath>
</defs>
</svg>
