<svg width="1646" height="1646" viewBox="0 0 1646 1646" fill="none" xmlns="http://www.w3.org/2000/svg">
<g filter="url(#filter0_d_451_535)">
<rect x="90" y="60" width="1466" height="1466" rx="733" fill="white"/>
<path d="M1049.3 566.74H596.7C578.52 566.767 561.093 574.005 548.243 586.866C535.393 599.727 528.171 617.16 528.16 635.34V890.18C528.165 908.36 535.387 925.795 548.238 938.654C561.09 951.513 578.52 958.744 596.7 958.76H762.84L703 990.5C685.26 998.74 697.6 1025.88 715.52 1017.76C716.54 1016.98 821.76 961.58 823 960.76L928.86 1017.02C931.018 1018.18 933.431 1018.78 935.88 1018.78C951.18 1019.4 956.78 997.2 943 990.5L883.16 958.76H1049.3C1067.48 958.739 1084.9 951.508 1097.75 938.655C1110.6 925.801 1117.82 908.375 1117.84 890.2V635.34C1117.83 617.16 1110.61 599.727 1097.76 586.866C1084.91 574.005 1067.48 566.767 1049.3 566.74ZM1087.84 890.16C1087.84 895.224 1086.85 900.239 1084.91 904.918C1082.98 909.597 1080.14 913.85 1076.56 917.432C1072.98 921.015 1068.73 923.857 1064.05 925.797C1059.38 927.738 1054.36 928.738 1049.3 928.74H596.7C586.48 928.724 576.684 924.656 569.459 917.428C562.234 910.199 558.171 900.4 558.16 890.18V635.34C558.16 614.04 575.4 596.78 596.7 596.76H1049.3C1059.52 596.776 1069.32 600.844 1076.54 608.073C1083.77 615.301 1087.83 625.1 1087.84 635.32V890.16Z" fill="#13223B"/>
<path d="M796.561 693.48H683.641C679.662 693.48 675.847 695.061 673.034 697.874C670.221 700.687 668.641 704.502 668.641 708.48C668.641 712.459 670.221 716.274 673.034 719.087C675.847 721.9 679.662 723.48 683.641 723.48H725.101V817C725.101 820.979 726.681 824.794 729.494 827.607C732.307 830.42 736.122 832 740.101 832C744.079 832 747.894 830.42 750.707 827.607C753.52 824.794 755.101 820.979 755.101 817V723.48H796.561C816.181 723.4 816.181 693.58 796.561 693.48ZM968.941 695C967.17 694.136 965.247 693.629 963.281 693.508C961.315 693.387 959.344 693.655 957.482 694.296C955.619 694.936 953.901 695.938 952.425 697.243C950.949 698.547 949.745 700.13 948.881 701.9L909.441 782.74L870.021 701.86C861.321 684.26 834.441 697.34 843.001 715.06L895.961 823.58C901.121 834.48 917.741 834.56 922.921 823.58L975.841 715.06C976.705 713.29 977.212 711.367 977.333 709.401C977.454 707.435 977.186 705.464 976.545 703.601C975.905 701.738 974.903 700.02 973.598 698.544C972.294 697.069 970.711 695.864 968.941 695Z" fill="#13223B"/>
</g>
<defs>
<filter id="filter0_d_451_535" x="0" y="0" width="1646" height="1646" filterUnits="userSpaceOnUse" color-interpolation-filters="sRGB">
<feFlood flood-opacity="0" result="BackgroundImageFix"/>
<feColorMatrix in="SourceAlpha" type="matrix" values="0 0 0 0 0 0 0 0 0 0 0 0 0 0 0 0 0 0 127 0" result="hardAlpha"/>
<feOffset dy="30"/>
<feGaussianBlur stdDeviation="45"/>
<feColorMatrix type="matrix" values="0 0 0 0 0 0 0 0 0 0 0 0 0 0 0 0 0 0 0.4 0"/>
<feBlend mode="normal" in2="BackgroundImageFix" result="effect1_dropShadow_451_535"/>
<feBlend mode="normal" in="SourceGraphic" in2="effect1_dropShadow_451_535" result="shape"/>
</filter>
</defs>
</svg>
