<svg width="1646" height="1646" viewBox="0 0 1646 1646" fill="none" xmlns="http://www.w3.org/2000/svg">
<g filter="url(#filter0_d_451_539)">
<rect x="90" y="60" width="1466" height="1466" rx="733" fill="white"/>
<g clip-path="url(#clip0_451_539)">
<path d="M723.242 664.178V647.197H922.406V664.178C922.406 671.301 928.266 676.723 934.951 676.723H935.763V693.461H932.906C926.655 693.077 921.311 697.256 919.671 702.996L919.658 703.041L919.647 703.086C909.695 745.298 870.882 773.953 822.824 773.953C775.136 773.953 736.314 745.315 726.004 703.097C724.729 697.214 719.656 693.461 713.861 693.461H713.158H710.237V676.723H710.698C717.778 676.723 723.242 671.258 723.242 664.178ZM685.147 695.109C685.147 706.567 693.334 716.257 704.252 718.329C720.372 767.09 766.956 799.042 822.824 799.042C879.031 799.042 925.626 767.099 941.405 718.328C952.304 716.259 960.852 706.606 960.852 695.109V675.426C960.852 665.943 955.307 657.843 947.495 654.091V634.652C947.495 627.572 942.031 622.107 934.951 622.107H710.698C704.013 622.107 698.153 627.529 698.153 634.652V654.092C690.33 657.864 685.147 665.995 685.147 675.426V695.109Z" fill="#13223B" stroke="#13223B" stroke-width="4"/>
<path d="M700.986 642.493L701.038 642.565L701.095 642.632C703.546 645.491 706.894 647.197 710.698 647.197H934.951C938.616 647.197 942.407 645.592 944.61 642.566C947.108 639.61 947.88 635.888 947.484 632.322L947.474 632.234L947.456 632.148L930.252 546.827C929.78 542.534 926.798 539.236 923.543 537.608L923.526 537.6L923.508 537.591L828.254 492.249L828.23 492.237L828.206 492.227C824.565 490.609 820.778 490.563 817.377 492.257L722.513 537.581C718.715 539.28 716.231 542.658 715.415 546.738L715.414 546.742L698.547 632.133C697.697 635.997 699.008 639.723 700.986 642.493ZM919.865 622.107H726.135L738.829 557.639L822.826 517.361L907.172 557.641L919.865 622.107ZM590.136 1094.65H1055.86C1062.94 1094.65 1068.41 1089.18 1068.41 1082.1V956.269C1068.41 879.945 1006.35 817.889 930.03 817.889H896.287C889.558 817.889 883.742 823.706 883.742 830.434C883.742 837.557 889.602 842.979 896.287 842.979H930.03C992.546 842.979 1043.32 893.753 1043.32 956.269V1069.56H602.68V956.269C602.68 893.753 653.455 842.979 715.97 842.979H749.714C756.399 842.979 762.259 837.557 762.259 830.434C762.259 823.706 756.442 817.889 749.714 817.889H715.97C639.646 817.889 577.591 879.945 577.591 956.269V1082.1C577.591 1089.18 583.056 1094.65 590.136 1094.65Z" fill="#13223B" stroke="#13223B" stroke-width="4"/>
<path fill-rule="evenodd" clip-rule="evenodd" d="M673.791 1092.65C667.816 1092.65 663.246 1088.08 663.246 1082.1V1006.18C663.246 1000.56 667.816 995.636 673.791 995.636C679.415 995.636 684.336 1000.56 684.336 1006.18V1082.1C684.336 1088.08 679.415 1092.65 673.791 1092.65ZM972.209 1092.65C966.585 1092.65 961.664 1088.08 961.664 1082.1V1006.18C961.664 1000.56 966.585 995.636 972.209 995.636C978.185 995.636 982.754 1000.56 982.754 1006.18V1082.1C982.754 1088.08 978.185 1092.65 972.209 1092.65ZM822.824 902.49C820.364 902.49 817.903 901.436 816.146 900.03L742.684 838.519C738.466 835.004 737.763 828.325 741.629 823.756C745.144 819.186 751.823 818.835 756.392 822.35L822.824 878.237L889.608 822.35C894.178 818.835 900.856 819.186 904.371 823.756C908.237 828.325 907.534 835.004 902.965 838.519L829.503 900.03C827.745 901.436 825.285 902.49 822.824 902.49Z" fill="#13223B"/>
<path d="M777.306 775.41L777.31 775.397L777.313 775.383C778.967 768.769 775.255 762.031 768.533 760.318C761.797 758.248 754.728 762.449 753.05 769.124C753.049 769.13 753.047 769.135 753.046 769.14L737.598 827.068C735.537 833.75 739.65 840.764 746.232 842.52C746.845 842.781 747.48 842.88 747.995 842.927C748.57 842.979 749.174 842.979 749.673 842.979H749.714C755.198 842.979 760.166 839.207 761.819 833.834L761.83 833.796L761.84 833.758L777.306 775.41ZM884.16 833.758L884.17 833.796L884.182 833.834C885.835 839.207 890.802 842.979 896.287 842.979H896.339C897.373 842.979 898.333 842.979 899.658 842.549C906.426 840.812 910.057 833.685 908.42 827.137L908.417 827.122L908.413 827.107L892.947 769.11L892.936 769.069L892.923 769.029C890.885 762.507 884.287 758.262 877.524 759.952L877.468 759.966L877.413 759.984C870.92 762.013 866.599 768.624 868.705 775.451L884.16 833.758ZM736.27 682.029L736.308 682.071L736.349 682.112C738.766 684.529 742.066 686.213 745.847 686.213H900.153C903.891 686.213 907.255 684.56 909.396 682.009L944.521 643.02L944.57 642.967L944.614 642.91C947.484 639.22 948.336 633.905 946.65 629.691L946.633 629.648L946.614 629.606C944.529 625.02 939.947 622.107 934.951 622.107H710.698C706.028 622.107 701.478 625.04 699.402 629.573C697.268 633.879 698.173 639.301 701.47 643.01L701.473 643.013L736.27 682.029ZM1083.39 1082.1C1083.39 1089.18 1088.86 1094.65 1095.94 1094.65C1103.02 1094.65 1108.48 1089.18 1108.48 1082.1V949.239C1108.48 942.554 1103.06 936.694 1095.94 936.694C1088.81 936.694 1083.39 942.554 1083.39 949.239V1082.1ZM537.521 1082.1C537.521 1089.18 542.985 1094.65 550.065 1094.65C556.75 1094.65 562.61 1089.23 562.61 1082.1V949.239C562.61 942.51 556.794 936.694 550.065 936.694C542.942 936.694 537.521 942.554 537.521 949.239V1082.1ZM906.969 647.197L894.681 661.123H751.319L739.032 647.197H906.969ZM783.566 574.546C783.566 596.401 801.346 613.805 822.825 613.805C844.643 613.805 862.434 596.414 862.434 574.546C862.434 552.679 844.643 535.288 822.825 535.288C801.346 535.288 783.566 552.691 783.566 574.546ZM808.656 574.546C808.656 566.54 815.113 560.378 822.825 560.378C830.916 560.378 837.345 566.568 837.345 574.546C837.345 582.525 830.916 588.715 822.825 588.715C815.113 588.715 808.656 582.552 808.656 574.546Z" fill="#13223B" stroke="#13223B" stroke-width="4"/>
<path fill-rule="evenodd" clip-rule="evenodd" d="M822.825 978.413C819.661 978.413 816.146 977.007 814.389 973.843C810.874 968.922 812.28 962.596 816.849 959.432L881.173 915.847L877.306 895.109C876.603 891.594 877.658 888.079 880.118 885.618C882.579 883.158 886.094 882.104 889.609 882.806L916.322 887.376L930.733 871.559L889.609 838.87C885.039 835.003 884.336 828.325 888.203 823.756C891.718 819.186 898.396 818.483 902.965 822.35L952.877 862.42C954.986 864.177 956.392 866.989 956.744 869.801C956.744 872.613 956.041 875.425 953.932 877.534L928.273 906.005C925.812 908.466 921.946 909.872 918.431 909.169L900.856 906.005L902.965 918.659C904.02 922.877 902.262 927.095 898.747 929.204L828.8 976.655C827.043 978.061 824.934 978.413 822.825 978.413Z" fill="#13223B"/>
<path fill-rule="evenodd" clip-rule="evenodd" d="M822.825 978.413C821.067 978.413 818.958 978.061 817.201 976.655L747.254 929.204C743.739 927.095 741.981 922.877 742.684 918.659L745.145 906.005L727.57 909.169C723.703 909.872 720.188 908.466 717.728 906.005L692.069 877.534C689.96 875.425 688.906 872.613 689.257 869.801C689.609 866.989 691.015 864.177 693.123 862.42L743.036 822.35C747.605 818.483 754.283 819.186 757.798 823.756C761.313 828.325 760.61 835.003 756.041 838.87L715.268 871.559L729.327 887.376L756.392 882.806C759.907 882.104 763.422 883.158 765.531 885.618C767.992 888.079 769.046 891.594 768.695 895.109L764.828 915.847L828.8 959.432C833.721 962.596 834.775 968.922 831.612 973.843C829.503 977.007 826.34 978.413 822.825 978.413Z" fill="#13223B"/>
<path fill-rule="evenodd" clip-rule="evenodd" d="M822.824 1092.65C816.849 1092.65 812.279 1088.08 812.279 1082.1V891.946C812.279 885.97 816.849 881.401 822.824 881.401C828.8 881.401 833.369 885.97 833.369 891.946V1082.1C833.369 1088.08 828.8 1092.65 822.824 1092.65ZM758.852 992.824H713.861C707.886 992.824 703.316 988.255 703.316 982.28C703.316 976.304 707.886 971.735 713.861 971.735H758.852C764.476 971.735 769.397 976.304 769.397 982.28C769.397 988.255 764.476 992.824 758.852 992.824Z" fill="#13223B"/>
</g>
</g>
<defs>
<filter id="filter0_d_451_539" x="0" y="0" width="1646" height="1646" filterUnits="userSpaceOnUse" color-interpolation-filters="sRGB">
<feFlood flood-opacity="0" result="BackgroundImageFix"/>
<feColorMatrix in="SourceAlpha" type="matrix" values="0 0 0 0 0 0 0 0 0 0 0 0 0 0 0 0 0 0 127 0" result="hardAlpha"/>
<feOffset dy="30"/>
<feGaussianBlur stdDeviation="45"/>
<feColorMatrix type="matrix" values="0 0 0 0 0 0 0 0 0 0 0 0 0 0 0 0 0 0 0.4 0"/>
<feBlend mode="normal" in2="BackgroundImageFix" result="effect1_dropShadow_451_539"/>
<feBlend mode="normal" in="SourceGraphic" in2="effect1_dropShadow_451_539" result="shape"/>
</filter>
<clipPath id="clip0_451_539">
<rect width="600" height="600" fill="white" transform="translate(523 493)"/>
</clipPath>
</defs>
</svg>
