<svg width="1646" height="1646" viewBox="0 0 1646 1646" fill="none" xmlns="http://www.w3.org/2000/svg">
<g filter="url(#filter0_d_449_430)">
<rect x="90" y="60" width="1466" height="1466" rx="733" fill="white"/>
<g clip-path="url(#clip0_449_430)">
<path d="M647.452 952.538L634.608 938.792L621.765 952.538C621.324 953.009 610.849 964.264 600.31 979.315C584.78 1001.49 577.232 1019.91 577.232 1035.63C577.232 1067.26 602.971 1093 634.608 1093C666.246 1093 691.983 1067.26 691.983 1035.63C691.983 1019.91 684.435 1001.49 668.907 979.316C658.369 964.265 647.894 953.01 647.452 952.538ZM634.608 1057.84C622.356 1057.84 612.388 1047.88 612.388 1035.63C612.388 1024.91 623.137 1006.93 634.593 991.895C645.958 1006.87 656.827 1025.03 656.827 1035.63C656.827 1047.88 646.859 1057.84 634.608 1057.84ZM1046.58 608.129V645.043H1013.57C990.264 645.043 970.825 661.851 966.704 683.977H900.561C883.597 663.993 860.076 650.697 834.206 646.47V615.48C843.553 612.729 852.128 607.829 859.244 601.173C862.88 602.259 866.533 603.289 870.2 604.264C902.158 612.756 937.237 618.012 951.413 618.012C985.88 618.012 1013.92 589.971 1013.92 555.505C1013.92 521.041 985.88 493 951.413 493C937.237 493 902.157 498.257 870.2 506.748C866.38 507.763 862.728 508.791 859.237 509.832C848.063 499.402 833.083 493 816.628 493C800.172 493 785.192 499.402 774.018 509.833C770.379 508.75 766.724 507.722 763.054 506.75C731.097 498.257 696.017 493 681.841 493C647.375 493 619.334 521.041 619.334 555.507C619.334 589.973 647.375 618.013 681.841 618.013C696.017 618.013 731.097 612.756 763.054 604.265C766.722 603.29 770.375 602.26 774.011 601.175C781.128 607.83 789.702 612.729 799.049 615.481V646.471C773.18 650.699 749.658 663.994 732.694 683.978H673.659C613.34 683.978 564.267 733.05 564.267 793.37V919.933H707.235V826.947H733.387C754.179 850.969 784.658 865.067 816.626 865.067C848.596 865.067 879.074 850.969 899.867 826.947H966.021C967.778 851.65 988.423 871.216 1013.57 871.216H1046.58V908.13H1081.73V608.13H1046.58V608.129ZM951.413 528.156C966.495 528.156 978.765 540.426 978.765 555.507C978.765 570.588 966.495 582.857 951.413 582.857C942.599 582.857 915.392 579.196 887.231 572.325C883.964 571.53 880.708 570.695 877.462 569.819C878.544 565.219 879.134 560.432 879.134 555.507C879.134 550.581 878.544 545.794 877.462 541.195C880.708 540.319 883.964 539.483 887.231 538.688C915.392 531.817 942.599 528.156 951.413 528.156ZM681.841 582.857C666.76 582.857 654.49 570.588 654.49 555.507C654.49 540.426 666.76 528.156 681.841 528.156C690.654 528.156 717.863 531.817 746.023 538.688C749.497 539.535 752.742 540.372 755.793 541.197C754.712 545.796 754.121 550.582 754.121 555.507C754.121 560.431 754.712 565.217 755.793 569.816C752.547 570.692 749.29 571.528 746.023 572.325C717.862 579.197 690.654 582.857 681.841 582.857ZM789.277 555.507C789.277 540.426 801.547 528.156 816.628 528.156C831.708 528.156 843.979 540.426 843.979 555.507C843.979 570.588 831.708 582.857 816.628 582.857C801.547 582.857 789.277 570.588 789.277 555.507ZM882.452 791.789L877.188 799.026C863.117 818.364 840.478 829.909 816.626 829.909C792.776 829.909 770.137 818.364 756.066 799.026L750.802 791.789H672.078V884.775H599.422V793.369C599.422 752.436 632.724 719.133 673.658 719.133H750.342L755.597 711.743C769.646 691.991 792.461 680.199 816.626 680.199C840.793 680.199 863.608 691.991 877.655 711.743L882.911 719.133H965.885V791.789H882.452ZM1013.57 836.058C1006.66 836.058 1001.04 830.44 1001.04 823.533V692.725C1001.04 685.818 1006.66 680.2 1013.57 680.2H1046.58V836.059L1013.57 836.058Z" fill="#13223B"/>
</g>
</g>
<defs>
<filter id="filter0_d_449_430" x="0" y="0" width="1646" height="1646" filterUnits="userSpaceOnUse" color-interpolation-filters="sRGB">
<feFlood flood-opacity="0" result="BackgroundImageFix"/>
<feColorMatrix in="SourceAlpha" type="matrix" values="0 0 0 0 0 0 0 0 0 0 0 0 0 0 0 0 0 0 127 0" result="hardAlpha"/>
<feOffset dy="30"/>
<feGaussianBlur stdDeviation="45"/>
<feColorMatrix type="matrix" values="0 0 0 0 0 0 0 0 0 0 0 0 0 0 0 0 0 0 0.4 0"/>
<feBlend mode="normal" in2="BackgroundImageFix" result="effect1_dropShadow_449_430"/>
<feBlend mode="normal" in="SourceGraphic" in2="effect1_dropShadow_449_430" result="shape"/>
</filter>
<clipPath id="clip0_449_430">
<rect width="600" height="600" fill="white" transform="translate(523 493)"/>
</clipPath>
</defs>
</svg>
