<svg xmlns="http://www.w3.org/2000/svg" xmlns:xlink="http://www.w3.org/1999/xlink" width="1920" zoomAndPan="magnify" viewBox="0 0 1440 675.000002" height="900" preserveAspectRatio="xMidYMid meet" version="1.0"><defs><clipPath id="fb5faf50de"><path d="M 1.066406 0 L 1438.933594 0 L 1438.933594 674 L 1.066406 674 Z M 1.066406 0 " clip-rule="nonzero"/></clipPath><clipPath id="6974b5aef3"><path d="M 1.066406 0 L 345 0 L 345 538 L 1.066406 538 Z M 1.066406 0 " clip-rule="nonzero"/></clipPath><clipPath id="46be70774c"><path d="M -369.140625 537.117188 L -717.496094 -200.175781 L -4.332031 -537.132812 L 344.023438 200.160156 Z M -369.140625 537.117188 " clip-rule="nonzero"/></clipPath><clipPath id="c3189b7201"><path d="M 1.066406 223 L 860 223 L 860 674 L 1.066406 674 Z M 1.066406 223 " clip-rule="nonzero"/></clipPath><clipPath id="e122ce342d"><path d="M 145.902344 1298.195312 L -202.453125 560.902344 L 510.714844 223.945312 L 859.070312 961.238281 Z M 145.902344 1298.195312 " clip-rule="nonzero"/></clipPath><clipPath id="a48c2ae4c1"><path d="M 1021 0 L 1438.933594 0 L 1438.933594 622 L 1021 622 Z M 1021 0 " clip-rule="nonzero"/></clipPath><clipPath id="ba395605c7"><path d="M 1476.363281 621.363281 L 1021.101562 -55.164062 L 1721.785156 -526.675781 L 2177.042969 149.851562 Z M 1476.363281 621.363281 " clip-rule="nonzero"/></clipPath></defs><g clip-path="url(#fb5faf50de)"><path fill="#ffffff" d="M 1.066406 0 L 1438.933594 0 L 1438.933594 674 L 1.066406 674 Z M 1.066406 0 " fill-opacity="1" fill-rule="nonzero"/><path fill="#ffffff" d="M 1.066406 0 L 1438.933594 0 L 1438.933594 674 L 1.066406 674 Z M 1.066406 0 " fill-opacity="1" fill-rule="nonzero"/></g><g clip-path="url(#6974b5aef3)"><g clip-path="url(#46be70774c)"><path fill="#13223b" d="M -369.140625 537.117188 L -717.941406 -201.121094 L -4.777344 -538.074219 L 344.023438 200.160156 Z M -369.140625 537.117188 " fill-opacity="1" fill-rule="nonzero"/></g></g><g clip-path="url(#c3189b7201)"><g clip-path="url(#e122ce342d)"><path fill="#13223b" d="M 145.902344 1298.195312 L -202.898438 559.957031 L 510.269531 223 L 859.070312 961.238281 Z M 145.902344 1298.195312 " fill-opacity="1" fill-rule="nonzero"/></g></g><g clip-path="url(#a48c2ae4c1)"><g clip-path="url(#ba395605c7)"><path fill="#13223b" d="M 1476.363281 621.363281 L 1021.101562 -55.164062 L 1721.140625 -526.242188 L 2176.398438 150.285156 Z M 1476.363281 621.363281 " fill-opacity="1" fill-rule="nonzero"/></g></g></svg>