<svg width="235" height="66" viewBox="0 0 235 66" fill="none" xmlns="http://www.w3.org/2000/svg">
<rect width="132" height="22" fill="#EAA428"/>
<path d="M7.32 34V15.61H0.12V13H17.49V15.61H10.29V34H7.32ZM35.8174 13H38.8174V34H35.8174V13ZM23.7574 34H20.7574V13H23.7574V34ZM36.0874 24.64H23.4574V22.03H36.0874V24.64ZM45.1031 34V13H48.1031V34H45.1031ZM54.3902 34V13H62.5802C64.4202 13 65.9902 13.29 67.2902 13.87C68.5902 14.45 69.5902 15.29 70.2902 16.39C70.9902 17.49 71.3402 18.8 71.3402 20.32C71.3402 21.84 70.9902 23.15 70.2902 24.25C69.5902 25.33 68.5902 26.16 67.2902 26.74C65.9902 27.32 64.4202 27.61 62.5802 27.61H56.0402L57.3902 26.23V34H54.3902ZM68.4302 34L63.0902 26.38H66.3002L71.7002 34H68.4302ZM57.3902 26.53L56.0402 25.06H62.4902C64.4102 25.06 65.8602 24.65 66.8402 23.83C67.8402 22.99 68.3402 21.82 68.3402 20.32C68.3402 18.82 67.8402 17.66 66.8402 16.84C65.8602 16.02 64.4102 15.61 62.4902 15.61H56.0402L57.3902 14.11V26.53ZM76.1871 34V13H85.0371C87.2771 13 89.2471 13.44 90.9471 14.32C92.6671 15.2 93.9971 16.43 94.9371 18.01C95.8971 19.59 96.3771 21.42 96.3771 23.5C96.3771 25.58 95.8971 27.41 94.9371 28.99C93.9971 30.57 92.6671 31.8 90.9471 32.68C89.2471 33.56 87.2771 34 85.0371 34H76.1871ZM79.1871 31.39H84.8571C86.5971 31.39 88.0971 31.06 89.3571 30.4C90.6371 29.74 91.6271 28.82 92.3271 27.64C93.0271 26.44 93.3771 25.06 93.3771 23.5C93.3771 21.92 93.0271 20.54 92.3271 19.36C91.6271 18.18 90.6371 17.26 89.3571 16.6C88.0971 15.94 86.5971 15.61 84.8571 15.61H79.1871V31.39ZM12.54 65.24C10.94 65.24 9.46 64.98 8.1 64.46C6.76 63.92 5.59 63.17 4.59 62.21C3.61 61.23 2.84 60.09 2.28 58.79C1.72 57.49 1.44 56.06 1.44 54.5C1.44 52.94 1.72 51.51 2.28 50.21C2.84 48.91 3.62 47.78 4.62 46.82C5.62 45.84 6.79 45.09 8.13 44.57C9.49 44.03 10.97 43.76 12.57 43.76C14.19 43.76 15.68 44.04 17.04 44.6C18.42 45.14 19.59 45.95 20.55 47.03L18.6 48.92C17.8 48.08 16.9 47.46 15.9 47.06C14.9 46.64 13.83 46.43 12.69 46.43C11.51 46.43 10.41 46.63 9.39 47.03C8.39 47.43 7.52 47.99 6.78 48.71C6.04 49.43 5.46 50.29 5.04 51.29C4.64 52.27 4.44 53.34 4.44 54.5C4.44 55.66 4.64 56.74 5.04 57.74C5.46 58.72 6.04 59.57 6.78 60.29C7.52 61.01 8.39 61.57 9.39 61.97C10.41 62.37 11.51 62.57 12.69 62.57C13.83 62.57 14.9 62.37 15.9 61.97C16.9 61.55 17.8 60.91 18.6 60.05L20.55 61.94C19.59 63.02 18.42 63.84 17.04 64.4C15.68 64.96 14.18 65.24 12.54 65.24ZM33.8702 65.24C32.2702 65.24 30.7802 64.97 29.4002 64.43C28.0402 63.89 26.8602 63.14 25.8602 62.18C24.8602 61.2 24.0802 60.06 23.5202 58.76C22.9602 57.46 22.6802 56.04 22.6802 54.5C22.6802 52.96 22.9602 51.54 23.5202 50.24C24.0802 48.94 24.8602 47.81 25.8602 46.85C26.8602 45.87 28.0402 45.11 29.4002 44.57C30.7602 44.03 32.2502 43.76 33.8702 43.76C35.4702 43.76 36.9402 44.03 38.2802 44.57C39.6402 45.09 40.8202 45.84 41.8202 46.82C42.8402 47.78 43.6202 48.91 44.1602 50.21C44.7202 51.51 45.0002 52.94 45.0002 54.5C45.0002 56.06 44.7202 57.49 44.1602 58.79C43.6202 60.09 42.8402 61.23 41.8202 62.21C40.8202 63.17 39.6402 63.92 38.2802 64.46C36.9402 64.98 35.4702 65.24 33.8702 65.24ZM33.8702 62.57C35.0302 62.57 36.1002 62.37 37.0802 61.97C38.0802 61.57 38.9402 61.01 39.6602 60.29C40.4002 59.55 40.9702 58.69 41.3702 57.71C41.7902 56.73 42.0002 55.66 42.0002 54.5C42.0002 53.34 41.7902 52.27 41.3702 51.29C40.9702 50.31 40.4002 49.46 39.6602 48.74C38.9402 48 38.0802 47.43 37.0802 47.03C36.1002 46.63 35.0302 46.43 33.8702 46.43C32.6902 46.43 31.6002 46.63 30.6002 47.03C29.6202 47.43 28.7602 48 28.0202 48.74C27.2802 49.46 26.7002 50.31 26.2802 51.29C25.8802 52.27 25.6802 53.34 25.6802 54.5C25.6802 55.66 25.8802 56.73 26.2802 57.71C26.7002 58.69 27.2802 59.55 28.0202 60.29C28.7602 61.01 29.6202 61.57 30.6002 61.97C31.6002 62.37 32.6902 62.57 33.8702 62.57ZM49.5855 65V44H52.0455L65.9355 61.25H64.6455V44H67.6455V65H65.1855L51.2955 47.75H52.5855V65H49.5855ZM79.7862 65L70.5462 44H73.7862L82.2762 63.38H80.4162L88.9662 44H91.9662L82.7562 65H79.7862ZM103.919 65.24C102.319 65.24 100.829 64.97 99.4491 64.43C98.0891 63.89 96.9091 63.14 95.9091 62.18C94.9091 61.2 94.1291 60.06 93.5691 58.76C93.0091 57.46 92.7291 56.04 92.7291 54.5C92.7291 52.96 93.0091 51.54 93.5691 50.24C94.1291 48.94 94.9091 47.81 95.9091 46.85C96.9091 45.87 98.0891 45.11 99.4491 44.57C100.809 44.03 102.299 43.76 103.919 43.76C105.519 43.76 106.989 44.03 108.329 44.57C109.689 45.09 110.869 45.84 111.869 46.82C112.889 47.78 113.669 48.91 114.209 50.21C114.769 51.51 115.049 52.94 115.049 54.5C115.049 56.06 114.769 57.49 114.209 58.79C113.669 60.09 112.889 61.23 111.869 62.21C110.869 63.17 109.689 63.92 108.329 64.46C106.989 64.98 105.519 65.24 103.919 65.24ZM103.919 62.57C105.079 62.57 106.149 62.37 107.129 61.97C108.129 61.57 108.989 61.01 109.709 60.29C110.449 59.55 111.019 58.69 111.419 57.71C111.839 56.73 112.049 55.66 112.049 54.5C112.049 53.34 111.839 52.27 111.419 51.29C111.019 50.31 110.449 49.46 109.709 48.74C108.989 48 108.129 47.43 107.129 47.03C106.149 46.63 105.079 46.43 103.919 46.43C102.739 46.43 101.649 46.63 100.649 47.03C99.6691 47.43 98.8091 48 98.0691 48.74C97.3291 49.46 96.7491 50.31 96.3291 51.29C95.9291 52.27 95.7291 53.34 95.7291 54.5C95.7291 55.66 95.9291 56.73 96.3291 57.71C96.7491 58.69 97.3291 59.55 98.0691 60.29C98.8091 61.01 99.6691 61.57 100.649 61.97C101.649 62.37 102.739 62.57 103.919 62.57ZM129.024 65.24C127.424 65.24 125.944 64.98 124.584 64.46C123.244 63.92 122.074 63.17 121.074 62.21C120.094 61.23 119.324 60.09 118.764 58.79C118.204 57.49 117.924 56.06 117.924 54.5C117.924 52.94 118.204 51.51 118.764 50.21C119.324 48.91 120.104 47.78 121.104 46.82C122.104 45.84 123.274 45.09 124.614 44.57C125.974 44.03 127.454 43.76 129.054 43.76C130.674 43.76 132.164 44.04 133.524 44.6C134.904 45.14 136.074 45.95 137.034 47.03L135.084 48.92C134.284 48.08 133.384 47.46 132.384 47.06C131.384 46.64 130.314 46.43 129.174 46.43C127.994 46.43 126.894 46.63 125.874 47.03C124.874 47.43 124.004 47.99 123.264 48.71C122.524 49.43 121.944 50.29 121.524 51.29C121.124 52.27 120.924 53.34 120.924 54.5C120.924 55.66 121.124 56.74 121.524 57.74C121.944 58.72 122.524 59.57 123.264 60.29C124.004 61.01 124.874 61.57 125.874 61.97C126.894 62.37 127.994 62.57 129.174 62.57C130.314 62.57 131.384 62.37 132.384 61.97C133.384 61.55 134.284 60.91 135.084 60.05L137.034 61.94C136.074 63.02 134.904 63.84 133.524 64.4C132.164 64.96 130.664 65.24 129.024 65.24ZM137.636 65L147.146 44H150.116L159.656 65H156.506L148.016 45.68H149.216L140.726 65H137.636ZM141.686 59.75L142.496 57.35H154.316L155.186 59.75H141.686ZM165.904 65V46.61H158.704V44H176.074V46.61H168.874V65H165.904ZM179.341 65V44H182.341V65H179.341ZM198.109 65.24C196.509 65.24 195.019 64.97 193.639 64.43C192.279 63.89 191.099 63.14 190.099 62.18C189.099 61.2 188.319 60.06 187.759 58.76C187.199 57.46 186.919 56.04 186.919 54.5C186.919 52.96 187.199 51.54 187.759 50.24C188.319 48.94 189.099 47.81 190.099 46.85C191.099 45.87 192.279 45.11 193.639 44.57C194.999 44.03 196.489 43.76 198.109 43.76C199.709 43.76 201.179 44.03 202.519 44.57C203.879 45.09 205.059 45.84 206.059 46.82C207.079 47.78 207.859 48.91 208.399 50.21C208.959 51.51 209.239 52.94 209.239 54.5C209.239 56.06 208.959 57.49 208.399 58.79C207.859 60.09 207.079 61.23 206.059 62.21C205.059 63.17 203.879 63.92 202.519 64.46C201.179 64.98 199.709 65.24 198.109 65.24ZM198.109 62.57C199.269 62.57 200.339 62.37 201.319 61.97C202.319 61.57 203.179 61.01 203.899 60.29C204.639 59.55 205.209 58.69 205.609 57.71C206.029 56.73 206.239 55.66 206.239 54.5C206.239 53.34 206.029 52.27 205.609 51.29C205.209 50.31 204.639 49.46 203.899 48.74C203.179 48 202.319 47.43 201.319 47.03C200.339 46.63 199.269 46.43 198.109 46.43C196.929 46.43 195.839 46.63 194.839 47.03C193.859 47.43 192.999 48 192.259 48.74C191.519 49.46 190.939 50.31 190.519 51.29C190.119 52.27 189.919 53.34 189.919 54.5C189.919 55.66 190.119 56.73 190.519 57.71C190.939 58.69 191.519 59.55 192.259 60.29C192.999 61.01 193.859 61.57 194.839 61.97C195.839 62.37 196.929 62.57 198.109 62.57ZM213.824 65V44H216.284L230.174 61.25H228.884V44H231.884V65H229.424L215.534 47.75H216.824V65H213.824Z" fill="#27467A"/>
</svg>
