<svg xmlns="http://www.w3.org/2000/svg" xmlns:xlink="http://www.w3.org/1999/xlink" width="1920" zoomAndPan="magnify" viewBox="0 0 1440 675.000002" height="900" preserveAspectRatio="xMidYMid meet" version="1.0"><defs><clipPath id="4eaa112a17"><path d="M 1.066406 0 L 1438.933594 0 L 1438.933594 674 L 1.066406 674 Z M 1.066406 0 " clip-rule="nonzero"/></clipPath><clipPath id="4c2718d97f"><path d="M 1.066406 0 L 345 0 L 345 538 L 1.066406 538 Z M 1.066406 0 " clip-rule="nonzero"/></clipPath><clipPath id="5d7f7ed993"><path d="M -369.140625 537.117188 L -717.496094 -200.175781 L -4.332031 -537.132812 L 344.023438 200.160156 Z M -369.140625 537.117188 " clip-rule="nonzero"/></clipPath><clipPath id="08f66f248d"><path d="M 1.066406 223 L 860 223 L 860 674 L 1.066406 674 Z M 1.066406 223 " clip-rule="nonzero"/></clipPath><clipPath id="0e7e19350f"><path d="M 145.902344 1298.195312 L -202.453125 560.902344 L 510.714844 223.945312 L 859.070312 961.238281 Z M 145.902344 1298.195312 " clip-rule="nonzero"/></clipPath><clipPath id="5dd16272f7"><path d="M 1000 0 L 1438.933594 0 L 1438.933594 622 L 1000 622 Z M 1000 0 " clip-rule="nonzero"/></clipPath><clipPath id="1bca5cd677"><path d="M 1455.9375 621.363281 L 1000.679688 -55.164062 L 1701.363281 -526.675781 L 2156.621094 149.851562 Z M 1455.9375 621.363281 " clip-rule="nonzero"/></clipPath></defs><g clip-path="url(#4eaa112a17)"><path fill="#ffffff" d="M 1.066406 0 L 1438.933594 0 L 1438.933594 674 L 1.066406 674 Z M 1.066406 0 " fill-opacity="1" fill-rule="nonzero"/><path fill="#ffffff" d="M 1.066406 0 L 1438.933594 0 L 1438.933594 674 L 1.066406 674 Z M 1.066406 0 " fill-opacity="1" fill-rule="nonzero"/></g><g clip-path="url(#4c2718d97f)"><g clip-path="url(#5d7f7ed993)"><path fill="#13223b" d="M -369.140625 537.117188 L -717.941406 -201.121094 L -4.777344 -538.074219 L 344.023438 200.160156 Z M -369.140625 537.117188 " fill-opacity="1" fill-rule="nonzero"/></g></g><g clip-path="url(#08f66f248d)"><g clip-path="url(#0e7e19350f)"><path fill="#13223b" d="M 145.902344 1298.195312 L -202.898438 559.957031 L 510.269531 223 L 859.070312 961.238281 Z M 145.902344 1298.195312 " fill-opacity="1" fill-rule="nonzero"/></g></g><g clip-path="url(#5dd16272f7)"><g clip-path="url(#1bca5cd677)"><path fill="#13223b" d="M 1455.9375 621.363281 L 1000.679688 -55.164062 L 1700.71875 -526.242188 L 2155.976562 150.285156 Z M 1455.9375 621.363281 " fill-opacity="1" fill-rule="nonzero"/></g></g></svg>