<svg xmlns="http://www.w3.org/2000/svg" xmlns:xlink="http://www.w3.org/1999/xlink" width="1920" zoomAndPan="magnify" viewBox="0 0 1440 675.000002" height="900" preserveAspectRatio="xMidYMid meet" version="1.0"><defs><clipPath id="27dda3ef5a"><path d="M 1.066406 0 L 1438.933594 0 L 1438.933594 674 L 1.066406 674 Z M 1.066406 0 " clip-rule="nonzero"/></clipPath><clipPath id="4ec62598b4"><path d="M 1.066406 0 L 345 0 L 345 538 L 1.066406 538 Z M 1.066406 0 " clip-rule="nonzero"/></clipPath><clipPath id="7a17f8d6a2"><path d="M -369.140625 537.117188 L -717.496094 -200.175781 L -4.332031 -537.132812 L 344.023438 200.160156 Z M -369.140625 537.117188 " clip-rule="nonzero"/></clipPath><clipPath id="98f9e09104"><path d="M 1.066406 223 L 860 223 L 860 674 L 1.066406 674 Z M 1.066406 223 " clip-rule="nonzero"/></clipPath><clipPath id="6dbceeb6ca"><path d="M 145.902344 1298.195312 L -202.453125 560.902344 L 510.714844 223.945312 L 859.070312 961.238281 Z M 145.902344 1298.195312 " clip-rule="nonzero"/></clipPath><clipPath id="b8e687eaa7"><path d="M 1029 0 L 1438.933594 0 L 1438.933594 622 L 1029 622 Z M 1029 0 " clip-rule="nonzero"/></clipPath><clipPath id="7d9f2fd07b"><path d="M 1484.53125 621.363281 L 1029.273438 -55.164062 L 1729.957031 -526.675781 L 2185.214844 149.851562 Z M 1484.53125 621.363281 " clip-rule="nonzero"/></clipPath></defs><g clip-path="url(#27dda3ef5a)"><path fill="#ffffff" d="M 1.066406 0 L 1438.933594 0 L 1438.933594 674 L 1.066406 674 Z M 1.066406 0 " fill-opacity="1" fill-rule="nonzero"/><path fill="#ffffff" d="M 1.066406 0 L 1438.933594 0 L 1438.933594 674 L 1.066406 674 Z M 1.066406 0 " fill-opacity="1" fill-rule="nonzero"/></g><g clip-path="url(#4ec62598b4)"><g clip-path="url(#7a17f8d6a2)"><path fill="#13223b" d="M -369.140625 537.117188 L -717.941406 -201.121094 L -4.777344 -538.074219 L 344.023438 200.160156 Z M -369.140625 537.117188 " fill-opacity="1" fill-rule="nonzero"/></g></g><g clip-path="url(#98f9e09104)"><g clip-path="url(#6dbceeb6ca)"><path fill="#13223b" d="M 145.902344 1298.195312 L -202.898438 559.957031 L 510.269531 223 L 859.070312 961.238281 Z M 145.902344 1298.195312 " fill-opacity="1" fill-rule="nonzero"/></g></g><g clip-path="url(#b8e687eaa7)"><g clip-path="url(#7d9f2fd07b)"><path fill="#13223b" d="M 1484.53125 621.363281 L 1029.273438 -55.164062 L 1729.3125 -526.242188 L 2184.570312 150.285156 Z M 1484.53125 621.363281 " fill-opacity="1" fill-rule="nonzero"/></g></g></svg>