<svg xmlns="http://www.w3.org/2000/svg" xmlns:xlink="http://www.w3.org/1999/xlink" width="1920" zoomAndPan="magnify" viewBox="0 0 1440 809.999993" height="1080" preserveAspectRatio="xMidYMid meet" version="1.0"><defs><clipPath id="81df6f9be8"><path d="M 0 0 L 1070 0 L 1070 810 L 0 810 Z M 0 0 " clip-rule="nonzero"/></clipPath><clipPath id="9697f0acdd"><path d="M -1385.453125 1288.65625 L 3.058594 -99.851562 L 1069.960938 967.050781 L -318.546875 2355.558594 Z M -1385.453125 1288.65625 " clip-rule="nonzero"/></clipPath><clipPath id="2c5a5e6823"><path d="M 673 0 L 1440 0 L 1440 810 L 673 810 Z M 673 0 " clip-rule="nonzero"/></clipPath><clipPath id="979a56d638"><path d="M 673.59375 844.894531 L 2395.039062 -99.851562 L 3120.960938 1222.871094 L 1399.515625 2167.617188 Z M 673.59375 844.894531 " clip-rule="nonzero"/></clipPath></defs><rect x="-144" width="1728" fill="#ffffff" y="-80.999999" height="971.999992" fill-opacity="1"/><rect x="-144" width="1728" fill="#e9e9e9" y="-80.999999" height="971.999992" fill-opacity="1"/><g clip-path="url(#81df6f9be8)"><g clip-path="url(#9697f0acdd)"><path fill="#13223b" d="M -1385.453125 1288.65625 L 3.058594 -99.851562 L 1069.90625 966.996094 L -318.605469 2355.503906 Z M -1385.453125 1288.65625 " fill-opacity="1" fill-rule="nonzero"/></g></g><g clip-path="url(#2c5a5e6823)"><g clip-path="url(#979a56d638)"><path fill="#e88b00" d="M 673.59375 844.894531 L 2395.039062 -99.851562 L 3120.921875 1222.804688 L 1399.476562 2167.546875 Z M 673.59375 844.894531 " fill-opacity="1" fill-rule="nonzero"/></g></g></svg>