<svg xmlns="http://www.w3.org/2000/svg" version="1.1" xmlns:xlink="http://www.w3.org/1999/xlink" width="512" height="512" x="0" y="0" viewBox="0 0 512 512" style="enable-background:new 0 0 512 512" xml:space="preserve" fill-rule="evenodd" class=""><g><path fill="#fefefe" d="M256 32c123.629 0 224 100.371 224 224S379.629 480 256 480 32 379.629 32 256 132.371 32 256 32zM125.98 259.35l.129 69.569a48.625 48.625 0 0 0 48.623 48.622h22.7c10.201 0 18.471-8.27 18.471-18.471v-87.101c0-10.201-8.27-18.47-18.471-18.47h-22.7a48.6 48.6 0 0 0-20.172 4.382c.79-55.32 45.941-99.982 101.44-99.982s100.65 44.662 101.44 99.982a48.6 48.6 0 0 0-20.172-4.382h-22.7c-10.201 0-18.471 8.269-18.471 18.47v87.101c0 10.201 8.27 18.471 18.471 18.471h22.7a48.626 48.626 0 0 0 48.623-48.622l.129-69.569c0-71.76-58.26-130.021-130.02-130.021S125.98 187.59 125.98 259.35zm61.353 22.718v66.903h-12.601a20.052 20.052 0 0 1-20.053-20.052v-26.798a20.054 20.054 0 0 1 20.053-20.053zm137.334 0h12.601a20.053 20.053 0 0 1 20.053 20.053v26.798a20.055 20.055 0 0 1-20.053 20.052h-12.601z" opacity="1" data-original="#212d38" class=""></path></g></svg>