<svg xmlns="http://www.w3.org/2000/svg" version="1.1" xmlns:xlink="http://www.w3.org/1999/xlink" width="512" height="512" x="0" y="0" viewBox="0 0 2.54 2.54" style="enable-background:new 0 0 512 512" xml:space="preserve" fill-rule="evenodd" class=""><g><circle cx="1.27" cy="1.27" r="1.27" fill="#ffffff" opacity="1" data-original="#333333" class=""></circle><g fill="#fff"><path d="M.621.889h.794c.062 0 .113.052.113.114v.534a.114.114 0 0 1-.113.114H.62a.114.114 0 0 1-.113-.114v-.534C.508.94.558.89.621.89zM1.637 1.037l.312-.118a.06.06 0 0 1 .056.007.06.06 0 0 1 .027.052v.583a.06.06 0 0 1-.027.051.06.06 0 0 1-.056.008l-.312-.118a.061.061 0 0 1-.04-.058v-.349c0-.027.015-.05.04-.058z" fill="#000630" opacity="1" data-original="#ffffff" class=""></path></g></g></svg>